<svg preserveAspectRatio="none" width="100%" height="100%" overflow="visible" style="display: block;" viewBox="0 0 99.5915 40" fill="none" xmlns="http://www.w3.org/2000/svg">
<g id="puzzzle">
<path id="Vector" d="M45.0122 16.9205C44.0965 14.2015 41.5124 13.3996 39.104 14.2391C38.2385 14.5398 37.6364 15.1537 36.9715 16.0058C36.9715 15.4795 36.9465 15.1287 36.9715 14.7904C37.0092 14.3769 36.8837 14.2015 36.4322 14.214C35.6043 14.2516 34.7638 14.2391 33.9359 14.214C33.4969 14.2015 33.3589 14.3393 33.3589 14.7904C33.384 17.0082 33.3715 19.2385 33.3715 21.4563C33.3715 24.0374 33.3715 26.6186 33.3589 29.1872C33.3589 29.6508 33.4969 29.8137 33.961 29.7886C34.8015 29.751 35.6419 29.751 36.4698 29.7886C36.8963 29.8012 36.9966 29.6508 36.9966 29.2498C36.9715 27.6586 36.9966 26.0547 36.9966 24.4509C36.9966 24.3005 36.8963 24.1126 37.0844 23.9998C38.4643 25.3906 38.7151 25.6037 39.6058 25.7916C42.1271 26.3554 44.247 25.4533 45.1125 22.609C45.6895 20.7295 45.6519 18.7999 45.0122 16.9205ZM41.3619 21.9575C40.9981 22.8596 40.2455 23.2982 39.2294 23.2355C38.3263 23.1854 37.6364 22.6591 37.3102 21.7319C37.1848 21.3686 37.097 20.9801 37.0217 20.5917C36.9715 20.3787 36.9966 20.1406 36.9715 19.7647C37.1472 18.9628 37.0719 17.9354 37.8872 17.1961C39.0162 16.1687 40.7723 16.4694 41.3493 17.8853C41.9013 19.2134 41.8762 20.6168 41.3619 21.9575Z" fill="var(--fill-0, white)"/>
<path id="Vector_2" d="M91.6978 20.6157C93.2407 20.6533 94.7836 20.6407 96.3265 20.6157C97.4053 20.6031 98.4966 20.6909 99.5753 20.5656C99.6381 19.8639 99.5001 19.1622 99.4625 18.448C98.9858 16.155 97.5558 14.5763 95.2352 14.1001C93.9808 13.837 92.7389 13.8871 91.472 14.2004C90.1173 14.5387 89.0636 15.2529 88.311 16.3555C87.3953 17.6962 87.1946 19.2374 87.3827 20.8162C87.6211 22.8335 88.5493 24.4122 90.4685 25.2893C92.2246 26.0787 94.0184 26.1413 95.8749 25.6276C97.468 25.1765 98.5091 24.1616 99.1614 22.7082C99.2367 22.5453 99.3621 22.2571 99.0736 22.207C98.2081 22.0316 97.3551 21.7559 96.4645 21.6932C96.2136 21.6682 96.1132 21.7559 96.0003 21.9564C95.461 22.9964 94.5076 23.485 93.4038 23.3347C92.1117 23.1467 91.4093 22.5202 91.1208 21.2923C90.9953 20.7911 91.1333 20.6031 91.6978 20.6157ZM91.1082 18.2601C91.2713 17.2702 92.2748 16.4683 93.4038 16.4432C94.6707 16.4307 95.4986 17.0447 95.762 18.1222C95.8624 18.5733 95.6867 18.6109 95.3355 18.5984C94.6832 18.5858 94.0435 18.5984 93.3912 18.5984H91.4595C91.2337 18.5984 91.0455 18.5858 91.1082 18.2601Z" fill="var(--fill-0, white)"/>
<path id="Vector_3" d="M54.6822 23.8992C53.0138 26.2548 49.8653 26.6432 48.0214 24.8765C47.043 23.9368 46.8172 22.7089 46.7921 21.4434C46.7544 19.213 46.7921 16.9952 46.7795 14.7649C46.7795 14.364 46.8924 14.2011 47.3189 14.2136C48.2095 14.2387 49.1127 14.2387 50.0159 14.2136C50.4925 14.2011 50.6054 14.4016 50.5929 14.8401C50.5678 16.7572 50.5929 18.6617 50.5929 20.5788C50.5929 20.867 50.5929 21.1677 50.618 21.4559C50.6932 22.6212 51.3079 23.2602 52.4368 23.3479C53.4905 23.4356 54.2933 22.8216 54.5693 21.7817C54.6696 21.3932 54.7073 21.0048 54.7073 20.6164C54.7073 18.6868 54.7198 16.7447 54.7073 14.8151C54.7073 14.3389 54.8452 14.2011 55.3094 14.2136C56.2 14.2512 57.1031 14.2387 58.0063 14.2136C58.3324 14.2136 58.4328 14.3139 58.4328 14.6396C58.4328 18.148 58.4328 21.6689 58.4328 25.1773C58.4328 25.503 58.3324 25.6033 58.0063 25.5907C57.0655 25.5657 56.1247 25.5657 55.1839 25.5907C54.7951 25.5907 54.6696 25.478 54.6947 25.0895C54.7198 24.7387 54.6947 24.3879 54.6947 23.8741L54.6822 23.8992Z" fill="var(--fill-0, white)"/>
<path id="Vector_4" d="M70.412 25.6024C72.2058 22.5952 73.9368 19.7008 75.7306 16.6812C74.5515 16.6812 73.4852 16.6812 72.4065 16.6812C71.4364 16.6812 70.9514 16.1925 70.9514 15.2152C70.9514 15.0899 70.9639 14.9646 70.9514 14.8393C70.8887 14.3506 71.0768 14.2002 71.5786 14.2002C74.5138 14.2253 77.4616 14.2002 80.3969 14.2002C81.0492 14.2002 81.0617 14.2378 80.7481 14.8017C79.2554 17.4079 77.7627 20.0266 76.2574 22.6328C76.0191 23.0463 76.0944 23.109 76.5209 23.109C77.8505 23.109 79.1927 23.109 80.5223 23.0964C80.9739 23.0964 81.1746 23.1967 81.137 23.6853C81.0868 24.2868 81.3251 25.0511 81.0241 25.4395C80.698 25.853 79.8952 25.5648 79.293 25.5774C76.5836 25.5899 73.8741 25.5774 71.1521 25.5774C70.9514 25.5774 70.7381 25.5774 70.3869 25.5774L70.412 25.6024Z" fill="var(--fill-0, white)"/>
<path id="Vector_5" d="M64.5787 25.6025C62.9731 25.6025 61.3675 25.6025 59.7619 25.6025C59.3354 25.6025 59.2476 25.5524 59.4985 25.1264C61.079 22.5202 62.6219 19.9139 64.1773 17.2952C64.2777 17.1198 64.5035 16.9444 64.3655 16.7439C64.2651 16.581 64.0142 16.6812 63.8386 16.6812C62.6344 16.6812 61.4177 16.6687 60.2134 16.6812C59.8622 16.6812 59.7242 16.581 59.7493 16.2176C59.7744 15.7039 59.7744 15.1776 59.7493 14.6639C59.7368 14.3507 59.8371 14.2128 60.1633 14.2128C63.2491 14.2128 66.3349 14.2128 69.4206 14.2128C69.8848 14.2128 69.7719 14.4509 69.6339 14.6765C69.1196 15.5911 68.6053 16.5058 68.0785 17.4205C67.1753 18.9867 66.2596 20.5279 65.3815 22.1067C64.817 23.1216 64.8421 23.1341 66.0463 23.1341C67.1502 23.1341 68.2541 23.1466 69.3579 23.1341C69.7593 23.1341 69.9349 23.2469 69.9099 23.6604C69.8722 24.2743 70.1106 25.0762 69.797 25.4647C69.4708 25.8782 68.6304 25.59 68.0032 25.6025C66.8617 25.6276 65.7077 25.6025 64.5662 25.6025H64.5787Z" fill="var(--fill-0, white)"/>
<path id="Vector_6" d="M82.305 18.0228C82.305 15.7173 82.3301 13.4118 82.2925 11.1063C82.2925 10.53 82.4681 10.4172 82.9824 10.4423C83.8353 10.4798 84.6883 10.4673 85.5413 10.4423C85.9051 10.4423 86.0431 10.5174 86.0431 10.9184C86.0305 15.6547 86.0305 20.4035 86.0431 25.1398C86.0431 25.5533 85.8925 25.6159 85.5288 25.6159C84.6382 25.5909 83.735 25.5909 82.8444 25.6159C82.4053 25.6284 82.2799 25.5157 82.2925 25.0646C82.3175 22.7215 82.2925 20.3659 82.2925 18.0228H82.305Z" fill="var(--fill-0, white)"/>
<path id="Vector_7" d="M25.5293 4.18967C23.61 1.34539 20.7751 0.0923996 17.4134 0.00469054C14.0516 -0.0830185 11.0662 1.06973 8.50724 3.22487C6.76364 4.67833 5.45908 6.48263 4.61864 8.60018C3.99145 10.2165 3.61513 11.8579 3.43952 13.5745C3.2639 15.241 3.12592 16.9075 3.41443 18.5489C3.48969 18.9499 3.64022 19.3383 3.43952 19.5137C3.1761 19.7392 2.82487 19.3759 2.56145 19.213C2.02206 18.8747 1.64575 18.9874 1.21925 19.426C0.55443 20.065 0.291009 20.892 0.0401315 21.719C-0.0351317 21.9946 -0.0351317 22.2953 0.316096 22.4707C1.39487 22.9845 2.4611 23.5107 3.62768 23.8365C3.96636 23.9618 4.31759 24.0244 4.64373 24.1748C5.59706 24.463 6.58803 24.6635 7.56645 24.7637C8.15601 24.8264 8.30654 25.0519 8.33162 25.5531C8.40689 27.0191 8.65776 28.4726 8.95882 29.9135C9.46057 32.2816 10.0627 34.6122 11.2794 36.7297C11.9568 37.9075 13.299 40 15.3687 40C16.021 40 16.4224 39.7369 16.5479 39.6743C17.4008 39.2357 17.9402 38.5466 18.3165 37.682C19.0065 36.1283 19.1444 34.4744 19.2448 32.8204C19.3828 30.2142 18.9814 27.6456 18.5298 25.0895L18.4671 24.8264L18.304 24.1999C18.2538 23.7488 17.9277 23.3604 18.6803 23.0221C20.9382 22.0197 22.9076 20.5787 24.5132 18.6742C25.6547 17.321 26.608 15.8424 27.0722 14.1008C27.2729 13.7374 27.2352 13.3114 27.4234 12.9606C27.4986 12.4594 27.599 11.9707 27.6366 11.482C27.8624 8.78813 27.022 6.36986 25.5293 4.18967ZM15.6698 35.4893C15.6196 35.6522 15.4942 36.1659 15.2307 36.1784C15.0426 36.1784 14.9172 35.9905 14.8168 35.8401C13.9638 34.6372 13.4495 33.284 13.0732 31.8807C12.5087 29.7882 12.17 27.6706 11.9568 25.5155C11.9192 25.0394 11.9693 24.8264 12.5464 24.8013C13.2237 24.7637 13.8886 24.5883 14.5659 24.4505C14.9548 24.3753 15.1179 24.4254 15.2307 24.889C15.7325 27.0066 15.9583 29.1366 15.9708 31.3043C15.9708 32.7954 16.1214 34.0483 15.6698 35.4893ZM11.9066 19.7392C11.9693 18.9123 11.9693 18.0602 12.2829 17.1205C12.9101 18.2356 13.4119 19.2506 13.8007 20.3156C13.9387 20.892 13.4495 20.8795 13.1485 20.9421C11.8439 21.0925 11.8188 21.0799 11.9066 19.7392ZM23.9487 12.3466C23.309 14.5644 22.0546 16.3687 20.2734 17.7971C19.3702 18.5238 18.3918 19.1378 17.3381 19.6265C17.0371 19.7643 16.8991 19.7643 16.7736 19.451C15.9207 17.3335 14.8168 15.3538 13.5499 13.4618C13.3241 13.1235 13.575 12.9982 13.6879 12.8227C14.2022 11.9707 14.2398 11.7452 13.6126 11.056C13.2614 10.6676 12.8976 10.2917 12.4335 10.0161C11.4927 9.41462 11.1414 9.43968 10.5644 10.3794C9.6989 11.7828 9.12189 13.3365 8.75812 14.9528C8.65776 15.3287 8.60759 15.7171 8.53233 16.093C8.33162 17.4964 8.10583 18.9123 8.15601 20.3281C8.1811 20.9546 7.91768 21.0423 7.42847 20.917C7.16505 20.8419 6.91417 20.7667 6.65075 20.704C6.60057 20.6289 6.53785 20.4284 6.41241 19.1879C6.32461 17.4588 6.2368 15.7422 6.41241 14.0131C6.78873 10.5924 8.03057 7.58526 10.8529 5.43012C13.2363 3.61329 15.9207 2.92415 18.9061 3.50052C19.1946 3.63835 19.5333 3.66341 19.8093 3.8263C21.1765 4.25232 22.1424 5.15447 22.8574 6.3448C23.3717 7.20936 23.7982 8.11152 24.0365 9.08885C24.2749 10.1789 24.1996 11.3066 23.9362 12.3466H23.9487Z" fill="var(--fill-0, #7F7F7F)"/>
</g>
</svg>
