<svg preserveAspectRatio="none" width="100%" height="100%" overflow="visible" style="display: block;" viewBox="0 0 119.134 32" fill="none" xmlns="http://www.w3.org/2000/svg">
<g id="veraset">
<path id="Union" d="M100.042 15.0877C101.349 13.2427 104.147 12.3432 106.7 13.0633C108.667 13.6184 110.433 15.8119 110.579 17.8816C110.771 20.5931 110.77 20.5936 108.067 20.5936C106.38 20.5936 104.687 20.6698 103.006 20.5682C101.723 20.4908 101.918 21.2882 102.083 21.9598C102.537 23.8043 105.495 24.5241 107.147 23.1971C107.634 22.8061 108.008 22.2736 108.432 21.8084C110.598 23.8783 110.598 23.8793 108.389 25.7918C106.638 26.502 104.883 26.9757 103.156 26.5203C100.916 25.9293 99.1672 24.0921 98.8251 21.1688C98.5678 18.9679 98.719 16.9559 100.042 15.0877ZM76.5917 13.0906C78.2811 12.9772 80.0405 12.6115 81.7792 13.4959C83.2971 14.2944 84.0574 15.3629 83.9853 17.0418C83.9037 18.9378 83.982 20.8409 83.957 22.74C83.9485 23.3834 83.9528 23.9177 84.8359 23.7693C85.3785 23.6783 85.635 23.9211 85.5478 24.4725C85.4526 25.0728 85.8751 26.0628 85.3027 26.2059C84.3431 26.4445 83.2283 26.5289 82.2626 25.9441C81.8085 25.669 81.4732 25.2861 81.291 24.7615C80.6539 26.5306 77.3078 27.2143 75.246 26.2049C73.455 25.3278 72.6761 23.1376 73.5087 21.0858C74.067 19.7109 75.2346 19.0058 76.5498 18.7518C77.4433 18.5792 78.3915 18.561 79.3105 18.3924C79.9922 18.2677 80.9629 18.7571 80.8203 17.3445C80.7056 16.2116 80.121 15.6853 79.08 15.5301C77.9757 15.3657 77.0523 15.8436 76.2265 16.4725C75.5362 16.9983 74.9897 16.9317 74.4619 16.3084C73.9561 15.7112 73.9797 15.0965 74.4257 14.4666C74.964 13.7068 75.8164 13.1427 76.5917 13.0906ZM90.122 13.0965C92.6974 12.7278 95.3415 12.675 97.2695 15.117C96.889 15.474 96.4637 15.8006 96.1298 16.2029C95.5631 16.8859 95.1176 16.9169 94.4599 16.3797L94.1904 16.1492C92.7887 15.0071 91.1257 15.2695 90.3056 16.7781C90.7213 18.3248 91.9399 18.2511 93.0458 18.3748C94.6001 18.5486 96.0241 18.9551 96.9218 20.3943C97.7357 21.6993 97.2633 24.6731 95.9902 25.5037C93.3083 27.2534 89.5933 26.9773 87.4267 24.8934C86.629 24.126 86.8653 23.6966 87.5585 23.1873C88.1272 22.7696 88.4336 21.5953 89.4921 22.7391C90.4483 23.7722 91.6358 24.3871 93.1943 23.8035C93.8606 23.554 94.4103 23.2861 94.3896 22.5994C94.3658 21.8165 93.791 21.3321 93.0058 21.24C91.99 21.1209 90.9975 20.9302 90.0244 20.6102C88.0414 19.958 87.138 18.8292 87.1367 16.9529C87.1356 15.2716 88.3906 13.3447 90.122 13.0965ZM51.9902 16.032C53.2749 13.5049 56.062 12.2235 59.0488 13.0535C61.4332 13.7165 62.9882 15.4784 63.0517 18.5408C63.0941 20.5918 63.0641 20.5926 60.9941 20.5926C59.1489 20.5926 57.301 20.6483 55.4589 20.5721C54.3554 20.5265 54.3568 21.0634 54.6152 21.8133C55.3122 23.8357 57.9723 24.5508 59.6679 23.158C60.1109 22.7941 60.4595 22.3153 60.831 21.9119C61.0007 21.9721 61.1182 21.9769 61.1513 22.0311C61.5797 22.7436 62.9379 23.0167 62.5654 24.0135C62.0566 25.3731 60.8252 26.0889 59.2236 26.3074C55.5739 27.4795 51.5375 25.3407 51.3505 21.0535C51.2766 19.3587 51.1688 17.6482 51.9902 16.032ZM48.4648 12.9822C49.2934 13.0836 50.164 12.7972 50.9501 13.1522C51.1198 13.23 50.9318 13.7037 50.8251 14.0135C49.5872 17.6078 48.4156 21.2251 47.163 24.8143C46.7593 25.9712 45.9162 26.6715 44.58 26.6209C43.2498 26.5705 42.5344 25.81 42.1455 24.6356C40.887 20.8344 39.6326 17.0314 38.2978 12.99C39.1133 12.99 39.8662 12.9899 40.7578 12.99C41.5483 12.9846 41.6794 13.3659 41.8613 13.949C42.7797 16.8934 43.7981 19.8072 44.7822 22.7332C45.7946 19.7128 46.7966 16.7406 47.7822 13.7635C47.9051 13.3916 47.8006 12.9009 48.4648 12.9822ZM115.233 9.45587C116.29 9.49425 116.819 9.67808 116.602 10.8211C116.582 10.9224 116.599 11.0306 116.6 11.1356C116.601 13.3053 116.602 13.3054 118.99 13.3055C119.134 14.0566 119.134 14.8082 119.134 15.7C119.132 15.8412 118.343 15.8173 118.024 15.8416C116.989 15.9204 117.056 15.9996 117.056 17.869C117.078 18.9679 117.039 19.9597 117.039 21.1658C117.055 24.0004 117.232 23.7368 119.033 24.0008C119.134 24.8296 119.134 25.5807 119.134 26.4725C118.187 26.6131 117.24 26.618 116.294 26.6121C114.339 26.5998 113.442 25.7265 113.434 23.8035C113.423 21.5422 113.375 19.2788 113.456 17.0203C113.491 16.0341 113.209 15.6561 112.243 15.8416C111.221 16.0378 111.138 15.4457 111.205 14.6619C111.263 13.9813 110.935 13.1737 112.216 13.2791C113.903 13.4181 113.838 12.1254 113.727 11.0193C113.607 9.81473 113.965 9.4099 115.233 9.45587ZM70.2841 13.076C70.9693 12.8922 72.1085 12.577 72.457 13.2742C72.8151 13.9918 72.5765 15.0298 72.5156 15.9217C72.4956 16.2142 72.1018 16.1601 71.8447 16.1609C71.3174 16.1627 70.789 16.143 70.2626 16.1658C68.7705 16.2307 68.1268 16.8972 68.122 18.3807C68.1154 20.4377 68.0986 22.495 68.1279 24.5516C68.1448 25.7434 67.7884 26.6485 66.4462 26.5936C65.2308 26.5436 64.8926 25.7721 64.9228 24.5691C65.0064 21.2483 65.016 17.9215 64.9189 14.6014C64.8816 13.3243 65.1521 12.7344 66.5136 12.9852C67.0233 13.079 67.5514 13.0727 68.0937 13.2479C68.1162 13.7325 68.1162 14.0815 68.1162 14.8631C68.6243 13.5617 69.5168 13.2818 70.2841 13.076ZM80.789 20.9627C79.6619 20.1537 78.586 20.8253 77.5205 20.9979C76.8381 21.1083 76.2066 21.5369 76.3447 22.5106C76.4683 23.3798 76.9084 23.9009 77.7206 24.0711C79.7724 24.5005 80.8002 23.4947 80.789 20.9627ZM57.8398 15.5057C56.3599 15.4177 55.1493 15.7511 54.582 17.2459C54.3286 17.9139 54.4041 18.4635 55.4013 18.3895C56.3954 18.3155 57.4 18.3738 58.5478 18.3738C59.1366 18.2303 60.122 18.7491 59.833 17.7039C59.5619 16.7238 59.2738 15.5911 57.8398 15.5057ZM107.172 17.2996C106.131 15.0527 104.1 14.7755 102.317 16.866C101.733 17.9033 101.803 18.4303 103.055 18.3807C104.208 18.3349 105.365 18.3511 106.519 18.3768C107.412 18.3966 107.591 18.204 107.172 17.2996Z" fill="var(--fill-0, #7F7F7F)"/>
<path id="Union_2" d="M16.875 5.38477C17.0049 5.38496 17.1101 5.49023 17.1104 5.62012V31.7646C17.1101 31.8945 17.0049 31.9998 16.875 32H14.1777C14.0477 32 13.9426 31.8946 13.9424 31.7646V5.62012C13.9426 5.49011 14.0477 5.38477 14.1777 5.38477H16.875ZM23.8438 9.82129C23.9739 9.82139 24.0791 9.92749 24.0791 10.0576V26.0625C24.0789 26.1924 23.9737 26.2977 23.8438 26.2979H21.1465C21.0165 26.2978 20.9114 26.1925 20.9111 26.0625V10.0576C20.9111 9.92745 21.0163 9.82133 21.1465 9.82129H23.8438ZM9.90332 0C10.0332 0.00023127 10.1385 0.105478 10.1387 0.235352V16.5576C10.1384 16.6875 10.0332 16.7927 9.90332 16.793H7.20605C7.07601 16.793 6.96997 16.6876 6.96973 16.5576V0.235352C6.96993 0.105334 7.07599 0 7.20605 0H9.90332ZM2.93262 5.70117C3.06257 5.70127 3.16772 5.80661 3.16797 5.93652V14.9707C3.16797 15.1008 3.06273 15.2069 2.93262 15.207H0.235352C0.105195 15.207 0 15.1009 0 14.9707V5.93652C0.000252759 5.80657 0.105352 5.70122 0.235352 5.70117H2.93262ZM30.8135 5.70117C30.9435 5.70117 31.0496 5.80654 31.0498 5.93652V14.9707C31.0498 15.1009 30.9437 15.207 30.8135 15.207H28.1172C27.987 15.207 27.8809 15.1009 27.8809 14.9707V5.93652C27.8811 5.80654 27.9871 5.70117 28.1172 5.70117H30.8135Z" fill="var(--fill-0, #7F7F7F)"/>
</g>
</svg>
