<svg preserveAspectRatio="none" width="100%" height="100%" overflow="visible" style="display: block;" viewBox="0 0 106.043 24" fill="none" xmlns="http://www.w3.org/2000/svg">
<g id="volta">
<path id="Vector" d="M20.2009 15.4786V16.8132H18.6312V23.9653H28.834V16.8132H27.2643V15.4786C27.2643 13.5282 25.6946 11.9539 23.7494 11.9539C21.8047 11.9534 20.2009 13.5277 20.2009 15.4786ZM27.2302 22.391H20.2009V18.4213H27.196V22.391H27.2302ZM25.6263 15.4786V16.8132H21.8047V15.4786C21.8047 14.4178 22.6576 13.5624 23.7158 13.5624C24.7739 13.5624 25.6263 14.4173 25.6263 15.4786ZM7.47818e-05 13.3565V10.4818C7.47818e-05 9.38679 0.88709 8.53141 1.94525 8.53141H2.25246C2.86687 6.99135 3.89043 5.58822 5.22119 4.42474C5.39186 3.77476 5.25532 3.05585 4.77744 2.30317C4.47023 1.82389 4.47023 1.20815 4.77744 0.69464C5.08417 0.215837 5.63032 -0.0580364 6.2106 0.0104319C8.49665 0.284305 9.72548 1.44779 10.3394 2.37164L9.00866 3.26125C8.59905 2.64504 7.7803 1.85813 6.2106 1.61849C6.82502 2.7135 6.99522 3.80852 6.72262 4.8693V5.21165L6.44954 5.45129C5.08465 6.58054 4.0611 7.98366 3.54908 9.55796L3.34428 10.1399L2.79813 10.1057H1.97938C1.77458 10.1057 1.60391 10.2769 1.60391 10.4823V13.357C1.60391 13.5624 1.77458 13.7336 1.97938 13.7336H3.37841L3.54908 14.3156C3.95869 15.7529 4.84571 17.1218 6.07407 18.2168L6.1082 18.2511C6.14233 18.2853 6.2106 18.3195 6.24474 18.3538H6.27887C7.6779 19.6199 7.81444 21.16 7.84857 21.5703V21.6046V22.3915H11.3293V20.7487L12.2163 20.8514C13.1716 20.9541 14.1274 20.9541 15.0827 20.8172L15.9697 20.6803V22.3915H17.0274V24H15.8331C15.0485 24 14.4 23.35 14.4 22.5627V22.4942C13.9221 22.5284 13.4447 22.5284 12.9327 22.5284V22.5627C12.9327 23.3496 12.2841 24 11.4995 24H7.64377C6.85915 24 6.2106 23.35 6.2106 22.5627V21.6046C6.2106 21.3992 6.1082 20.4069 5.18705 19.5515C5.15292 19.5172 5.08465 19.4488 5.05051 19.4145L5.01638 19.3803C3.71975 18.2168 2.76447 16.8137 2.18419 15.2736H1.94525C0.852956 15.3074 7.47818e-05 14.4173 7.47818e-05 13.3565ZM23.3403 9.25033L24.8759 8.83952L25.1148 9.69489L25.3196 10.4818L23.784 10.8584L23.5792 10.003L23.3403 9.25033ZM21.9413 6.82018L23.272 5.93056L23.7158 6.58054C23.7499 6.61477 23.784 6.68324 23.8182 6.71747L24.2619 7.40168L22.9311 8.25706L22.4874 7.57285C22.4533 7.53862 22.4533 7.50438 22.4191 7.47015L21.9413 6.82018ZM20.474 5.41753L19.8595 4.93825L20.849 3.70629L21.4634 4.21981C21.4975 4.25404 21.5316 4.28828 21.5999 4.32251L22.2143 4.83602L21.1908 6.06798L20.474 5.41753ZM18.0509 3.98017L17.3346 3.67206L17.949 2.20047L18.6653 2.50857C18.6995 2.54281 18.7677 2.54281 18.8019 2.57704L19.5182 2.88515L18.8697 4.35674L18.1533 4.04864C18.1192 4.0144 18.085 3.98017 18.0509 3.98017ZM15.3211 3.19278L14.5365 3.05585L14.7754 1.48155L15.5601 1.61849C15.5942 1.61849 15.6625 1.61849 15.6966 1.65272L16.4812 1.78966L16.2081 3.36395L15.4235 3.22702C15.3894 3.19278 15.3553 3.19278 15.3211 3.19278ZM11.7043 3.15855L11.5678 1.55049L13.2399 1.41356L13.3423 3.02209L11.7043 3.15855Z" fill="var(--fill-0, white)"/>
<path id="Vector_2" d="M39.329 7.32998H43.5736L46.8468 14.2273L50.12 7.32998H54.3905L46.8468 21.9968L39.329 7.32998ZM58.98 20.7274C57.8124 20.0692 56.8875 19.176 56.2056 18.0478C55.5238 16.9197 55.1829 15.689 55.1829 14.3554C55.1829 13.0389 55.5238 11.8171 56.2056 10.6889C56.8875 9.56075 57.8124 8.66756 58.98 8.00933C60.1475 7.3511 61.4221 7.02198 62.8029 7.02198C64.1837 7.02198 65.4623 7.3511 66.6386 8.00933C67.8149 8.66756 68.7482 9.56075 69.4388 10.6889C70.1294 11.8171 70.4743 13.0394 70.4743 14.3554C70.4743 15.6886 70.129 16.9197 69.4388 18.0478C68.7482 19.176 67.8149 20.0692 66.6386 20.7274C65.4623 21.3856 64.1837 21.7148 62.8029 21.7148C61.4221 21.7148 60.1475 21.3856 58.98 20.7274ZM60.8592 10.9071C60.2625 11.2574 59.7939 11.7361 59.4529 12.3428C59.112 12.9496 58.9413 13.6206 58.9413 14.3558C58.9413 15.1249 59.1076 15.8131 59.4398 16.4198C59.7724 17.0266 60.2326 17.5053 60.8206 17.8556C61.4085 18.2058 62.0693 18.3813 62.8025 18.3813C63.5185 18.3813 64.1706 18.2062 64.7585 17.8556C65.3464 17.5053 65.8111 17.0222 66.152 16.4066C66.4929 15.7911 66.6636 15.1073 66.6636 14.3554C66.6636 13.6202 66.4929 12.9496 66.152 12.3424C65.8111 11.7357 65.3464 11.2569 64.7585 10.9067C64.1706 10.5565 63.5181 10.3809 62.8025 10.3809C62.104 10.3813 61.4559 10.5565 60.8592 10.9071ZM73.6189 1.99679H77.4546V21.3817H73.6189V1.99679ZM85.8421 16.3556C85.8421 16.954 85.9443 17.4538 86.1488 17.8556C86.3532 18.2573 86.8306 18.4579 87.5809 18.4579C87.9218 18.4579 88.2456 18.4407 88.5527 18.4064V21.6373C87.9389 21.7055 87.3681 21.7398 86.8394 21.7398C85.7482 21.7398 84.8662 21.6501 84.1927 21.4706C83.5192 21.291 82.9953 20.9448 82.6202 20.4322C82.2451 19.9191 82.0577 19.1843 82.0577 18.2269V10.4069H80.3443V7.04794H82.0577V3.2785H85.8421V7.04794H88.655V10.4069H85.8421V16.3556ZM102.258 19.971C101.935 20.4154 101.376 20.8128 100.584 21.1634C99.7908 21.5137 98.926 21.6892 97.9884 21.6892C96.5396 21.6892 95.2821 21.3645 94.2168 20.7151C93.1514 20.0656 92.3375 19.1808 91.7746 18.061C91.2121 16.9412 90.9309 15.6978 90.9309 14.3303C90.9309 12.9628 91.2121 11.7194 91.7746 10.5996C92.3371 9.4798 93.151 8.5954 94.2168 7.94553C95.2821 7.2961 96.5396 6.97138 97.9884 6.97138C98.9603 6.97138 99.8167 7.13814 100.558 7.47122C101.3 7.80473 101.867 8.22757 102.259 8.7406V7.27894H106.043V21.3817H102.259V19.971H102.258ZM101.363 11.4453C100.664 10.7017 99.7268 10.3299 98.5505 10.3299C97.357 10.3299 96.4154 10.7017 95.7248 11.4453C95.0342 12.1888 94.6893 13.1502 94.6893 14.3299C94.6893 15.4752 95.043 16.4238 95.7507 17.1762C96.458 17.9282 97.3917 18.3043 98.5509 18.3043C99.7443 18.3043 100.686 17.9497 101.377 17.2404C102.067 16.5312 102.412 15.561 102.412 14.3303C102.412 13.1507 102.062 12.1888 101.363 11.4453Z" fill="var(--fill-0, white)"/>
</g>
</svg>
