<svg preserveAspectRatio="none" width="100%" height="100%" overflow="visible" style="display: block;" viewBox="0 0 77.2942 24.0001" fill="none" xmlns="http://www.w3.org/2000/svg">
<g id="ursa">
<path id="Vector" d="M77.2787 3.32393C77.2787 2.66721 77.0624 2.12639 76.5988 1.67055C75.5713 0.650699 74.3273 0.0944194 72.8748 0.0866933C69.5681 0.071241 66.2613 0.0866933 62.9622 0.071241C61.6411 0.0635149 60.4899 0.496177 59.4623 1.29197C58.8442 1.77871 58.3575 2.35044 58.3575 3.21577C58.3652 9.99929 58.3652 16.7828 58.3575 23.5663C58.3575 23.8831 58.4502 23.9449 58.7515 23.9449C61.4093 23.9372 64.0748 23.9372 66.7326 23.9526C67.0571 23.9526 67.1034 23.8368 67.1034 23.5586C67.088 21.967 67.1034 20.3755 67.1034 18.7839C67.1034 17.8181 67.1034 17.8336 68.0847 17.8181C68.3937 17.8104 68.4401 17.9108 68.4401 18.189C68.4246 19.9737 68.4401 21.7507 68.4246 23.5354C68.4169 23.8908 68.525 23.9526 68.8495 23.9449C71.5228 23.9372 74.2037 23.9372 76.877 23.9526C77.2169 23.9526 77.2942 23.8677 77.2942 23.5277C77.2787 20.1437 77.2864 16.7596 77.2864 13.3679C77.2864 9.97611 77.2787 6.67706 77.2942 3.32393H77.2787ZM68.4246 11.7531C68.4246 11.9849 68.3551 12.0544 68.1156 12.0544C67.088 12.0699 67.088 12.0776 67.088 11.0655C67.088 9.41983 67.088 7.7819 67.0803 6.14396C67.0803 5.87355 67.1498 5.77311 67.4279 5.80401C67.7447 5.83492 68.1542 5.67267 68.3551 5.86582C68.5559 6.0667 68.4092 6.47618 68.4169 6.79296C68.4246 7.51148 68.4169 8.23001 68.4169 8.94854C68.4169 9.8834 68.4091 10.8183 68.4246 11.7531Z" fill="var(--fill-0, white)"/>
<path id="Vector_2" d="M0.00776596 10.6165C0.00776596 7.21703 0.0154921 3.81754 3.98529e-05 0.418053C3.98529e-05 0.0858303 0.0927531 0.0240214 0.409523 0.0240214C3.0364 0.0394737 5.65555 0.0394737 8.28242 0.0240214C8.62237 0.0240214 8.66873 0.124461 8.66873 0.433505C8.661 5.74134 8.66873 11.0569 8.65328 16.3647C8.65328 16.7124 8.73826 16.8206 9.09367 16.8051C9.73493 16.7742 9.73493 16.8051 9.73493 16.1484C9.73493 10.9178 9.73493 5.67953 9.73493 0.448957C9.73493 0.124461 9.78901 0.0162953 10.1444 0.0240214C12.8176 0.0394737 15.4909 0.0394737 18.1718 0.0240214C18.4886 0.0240214 18.5736 0.101283 18.5736 0.425779C18.5581 7.18612 18.5504 13.9465 18.5504 20.7068C18.5504 21.5644 18.1178 22.167 17.4997 22.6615C16.4489 23.5037 15.2668 23.9827 13.8838 23.975C10.7239 23.9518 7.55617 23.9904 4.39619 23.9595C2.83552 23.944 1.54526 23.2564 0.502237 22.1207C0.154562 21.7498 3.98529e-05 21.294 3.98529e-05 20.7763C0.00776596 17.3923 3.98529e-05 14.0005 3.98529e-05 10.6165H0.00776596Z" fill="var(--fill-0, white)"/>
<path id="Vector_3" d="M35.6512 13.0339C36.5088 13.3275 37.3123 13.6366 38.1313 13.8761C38.5485 13.9997 38.6721 14.1851 38.6644 14.6255C38.6412 17.5846 38.649 20.5514 38.6644 23.5105C38.6644 23.8273 38.618 23.9509 38.2549 23.9432C35.5817 23.9278 32.9085 23.9278 30.2275 23.9432C29.9185 23.9432 29.8489 23.8582 29.8489 23.5646C29.8566 18.3031 29.8489 13.0494 29.8644 7.78791C29.8644 7.44024 29.7871 7.3398 29.4317 7.34753C28.6514 7.37843 28.6514 7.35525 28.6514 8.13559C28.6514 13.2657 28.6514 18.3959 28.6591 23.526C28.6591 23.8659 28.5818 23.9509 28.2419 23.9432C25.6536 23.9278 23.0731 23.9278 20.4849 23.9432C20.1836 23.9432 20.0986 23.8737 20.0986 23.5646C20.1063 15.8462 20.1063 8.12014 20.0986 0.401757C20.0986 0.0849872 20.1836 0 20.5003 0C24.8115 0.00772611 29.1149 0 33.4261 0.00772611C34.5464 0.00772611 35.6589 0.0927133 36.6865 0.625815C37.745 1.17437 38.2935 2.1015 38.5871 3.20633C38.8498 4.21845 38.9116 5.25375 38.9039 6.29678C38.9039 7.44024 38.9889 8.5837 38.8267 9.71944C38.5794 11.4346 37.6986 12.6476 35.798 12.9721C35.7671 12.9721 35.7362 12.9953 35.6435 13.0339H35.6512Z" fill="var(--fill-0, white)"/>
<path id="Vector_4" d="M56.8387 19.8867C56.8465 20.9607 56.437 22.0114 55.6566 22.7454C55.6566 22.7454 55.6489 22.7531 55.6412 22.7608C54.745 23.5953 54.0651 23.8502 52.5121 23.9043C49.4912 24.0047 41.6183 24.0047 40.583 23.997C40.413 23.997 40.2817 23.8888 40.2817 23.7189C40.2894 21.3624 40.2971 18.9982 40.2817 16.6418C40.274 16.3095 40.4671 16.3713 40.6448 16.3713C43.6039 16.3713 46.563 16.3713 49.5221 16.3791C49.8389 16.3791 49.9316 16.3018 49.9239 15.985C49.9007 15.1661 49.9161 15.1661 49.0894 15.1661C46.2849 15.1661 43.488 15.1583 40.6834 15.1661C40.4594 15.1661 40.2817 14.9884 40.2817 14.7643C40.2894 11.3107 40.2662 7.8649 40.2971 4.41133C40.3126 2.87384 41.0002 1.59903 42.1128 0.54828C42.4759 0.200605 42.9317 0.0460834 43.4494 0.0460834C47.7992 0.0460834 52.1413 0.0460834 56.4911 0.0383573C56.6688 0.0383573 56.8156 0.185153 56.8156 0.362854C56.8001 2.54162 56.8001 4.7281 56.8156 6.90686C56.8156 7.20818 56.6919 7.23136 56.4524 7.23136C53.3156 7.23136 50.1788 7.23136 47.0343 7.23136C46.7021 7.22363 46.6016 7.3009 46.6171 7.64857C46.6403 8.44436 46.6171 8.44436 47.4129 8.44436C50.5342 8.44436 53.6633 8.45209 56.7846 8.45209C56.8774 8.53707 56.8387 8.64524 56.8387 8.74568C56.8387 8.74568 56.8387 19.4618 56.8465 19.8867H56.8387Z" fill="var(--fill-0, white)"/>
</g>
</svg>
