<svg preserveAspectRatio="none" width="100%" height="100%" overflow="visible" style="display: block;" viewBox="0 0 69.8672 24.0001" fill="none" xmlns="http://www.w3.org/2000/svg">
<g id="agora">
<path id="Vector" d="M39.1321 11.0662C36.9589 11.0662 35.1956 9.31236 35.1956 7.13917C35.1956 4.96598 36.9494 3.20265 39.1226 3.20265C41.2958 3.20265 43.0591 4.95645 43.0591 7.12964V7.13917C43.0591 9.31236 41.3053 11.0662 39.1321 11.0662ZM39.1321 5.48491e-05C35.1956 5.48491e-05 31.993 3.19312 31.993 7.12964C31.993 11.0662 35.1861 14.2688 39.1226 14.2688C43.0591 14.2688 46.2617 11.0757 46.2617 7.13917C46.2617 3.20265 43.0687 0.00958638 39.1321 5.48491e-05Z" fill="var(--fill-0, white)"/>
<path id="Vector_2" d="M50.9741 1.83964L50.8883 1.92542L50.793 2.02074L50.7263 1.90636L50.6691 1.81105C50.1544 0.857893 49.2107 0.200218 48.1337 0.0572446L47.8668 5.48491e-05V14.2688L48.1337 14.2306C49.8303 14.04 51.098 12.5817 51.0694 10.8755V7.13917C51.0885 5.12802 52.604 3.45047 54.5961 3.23124L54.8057 3.21218V0.00958696L54.5484 0.0381818C53.1759 0.219281 51.9082 0.857894 50.955 1.84917" fill="var(--fill-0, white)"/>
<path id="Vector_3" d="M7.13242 11.0756C4.95923 11.0756 3.19589 9.31231 3.19589 7.13912C3.19589 4.96593 4.95923 3.20259 7.13242 3.20259C9.3056 3.20259 11.0689 4.96593 11.0689 7.13912C11.0594 9.31231 9.3056 11.0756 7.13242 11.0756ZM11.7075 1.41067L11.6504 1.48692L11.5932 1.56317L11.5169 1.50598L11.4407 1.44879C8.29526 -0.924559 3.81544 -0.305009 1.44209 2.8404C-0.931258 5.9858 -0.311709 10.4561 2.8337 12.8294C4.07279 13.7635 5.57878 14.2687 7.12288 14.2687C8.67652 14.2782 10.192 13.7635 11.4311 12.8199L11.5074 12.7627L11.5836 12.696L11.6408 12.7818L11.698 12.858C12.2413 13.611 13.0706 14.1067 13.9856 14.2306L14.2525 14.2687V0L13.9856 0.038127C13.0801 0.171568 12.2508 0.657676 11.7075 1.41067Z" fill="var(--fill-0, white)"/>
<path id="Vector_4" d="M62.7472 11.0757C60.574 11.0757 58.8107 9.31236 58.8107 7.13917C58.8107 4.96598 60.574 3.20265 62.7472 3.20265C64.9204 3.20265 66.6837 4.96598 66.6837 7.13917C66.6742 9.31236 64.9204 11.0757 62.7472 11.0757ZM69.6004 0.0381818C68.6853 0.171623 67.8561 0.657731 67.3128 1.41072L67.2556 1.48697L67.1984 1.57276L67.1222 1.51557L67.0459 1.45838C63.91 -0.924503 59.4302 -0.304955 57.0569 2.83092C54.6835 5.96679 55.284 10.4371 58.4294 12.8104C59.6685 13.7541 61.184 14.2592 62.7376 14.2592C64.2913 14.2592 65.8068 13.7541 67.0459 12.8104L67.1222 12.7532L67.1984 12.6865L67.2556 12.7723L67.3128 12.8486C67.8561 13.6015 68.6853 14.0972 69.6004 14.2211L69.8672 14.2592V5.48491e-05L69.6004 0.0381818Z" fill="var(--fill-0, white)"/>
<path id="Vector_5" d="M23.2309 3.20227C25.4041 3.20227 27.1674 4.96561 27.1579 7.13879C27.1579 9.31198 25.3946 11.0753 23.2214 11.0658C21.0482 11.0658 19.2944 9.30245 19.2944 7.13879C19.2944 4.96561 21.0482 3.20227 23.2309 3.20227ZM27.6821 12.7052C30.5988 10.389 31.2374 6.22377 29.15 3.13555C29.0547 2.98305 28.9403 2.84007 28.8259 2.6971C29.6647 2.14427 30.2175 1.26737 30.3509 0.276093L30.3891 0.00921012H23.2023C19.2658 0.0187417 16.0823 3.2118 16.0823 7.14833C16.0823 9.31198 17.0735 11.3613 18.7606 12.7052C18.4556 12.9435 18.1697 13.2104 17.9028 13.5059L20.076 15.8983C21.3723 14.154 23.8314 13.7823 25.5757 15.0786C27.3199 16.3748 27.6917 18.834 26.3954 20.5783C26.0904 20.9881 25.6996 21.3408 25.2611 21.6077L27.4343 24.0001C30.5892 21.6553 31.2564 17.1946 28.9022 14.0301C28.54 13.5344 28.111 13.096 27.6345 12.7147" fill="var(--fill-0, white)"/>
</g>
</svg>
