<svg preserveAspectRatio="none" width="100%" height="100%" overflow="visible" style="display: block;" viewBox="0 0 149.333 32" fill="none" xmlns="http://www.w3.org/2000/svg">
<g id="nine suns" clip-path="url(#clip0_0_220)">
<path id="Vector" d="M43.905 24.6227V11.6692H45.9975V13.7867C46.6701 12.5411 48.09 11.4202 50.3319 11.4202C53.0471 11.4202 55.3888 13.1141 55.3888 17.0002V24.6227H53.2963V17.2991C53.2963 14.6835 51.7518 13.3383 49.6842 13.3383C47.6167 13.3383 45.9975 14.6835 45.9975 17.2991V24.6227H43.905Z" fill="var(--fill-0, white)"/>
<path id="Vector_2" d="M58.8288 24.6208V11.6673H60.9212V24.6208H58.8288ZM58.8288 8.87739V6.93434H60.9212V8.87739H58.8288Z" fill="var(--fill-0, white)"/>
<path id="Vector_3" d="M64.3615 24.6227V11.6692H66.454V13.7867C67.1266 12.5411 68.5464 11.4202 70.7888 11.4202C73.504 11.4202 75.8454 13.1141 75.8454 17.0002V24.6227H73.7529V17.2991C73.7529 14.6835 72.2086 13.3383 70.1411 13.3383C68.0735 13.3383 66.454 14.6835 66.454 17.2991V24.6227H64.3615Z" fill="var(--fill-0, white)"/>
<path id="Vector_4" d="M85.3146 24.8719C81.8272 24.8719 78.664 22.4556 78.664 18.146C78.664 13.7866 81.8521 11.4202 85.1155 11.4202C88.4038 11.4202 91.8415 13.7867 91.3182 18.9183H80.6563C80.9804 21.6335 83.048 23.0783 85.5392 23.0783C87.0587 23.0783 88.4536 22.5303 89.4 21.509L90.4465 22.5801C89.2755 24.0249 87.4071 24.8719 85.3146 24.8719ZM80.6563 17.3239H89.4746C89.3253 14.6585 87.3075 13.2386 85.1404 13.2386C82.9982 13.2386 80.9804 14.6087 80.6563 17.3239Z" fill="var(--fill-0, white)"/>
<path id="Vector_5" d="M103.848 24.8719C101.432 24.8719 99.688 23.5765 99.2892 21.3594L101.033 20.8862C101.382 22.2563 102.403 23.1281 103.848 23.1281C105.069 23.1281 106.289 22.5303 106.289 21.1104C106.289 20.0392 105.542 19.4912 104.047 18.8684L102.877 18.42C100.735 17.5482 99.8373 16.2777 99.8373 14.808C99.8373 12.7654 101.606 11.4202 103.848 11.4202C105.916 11.4202 107.46 12.5661 107.908 14.3098L106.24 14.808C105.841 13.7369 105.069 13.139 103.923 13.139C102.802 13.139 101.905 13.7369 101.905 14.8329C101.905 15.655 102.428 16.3026 103.773 16.8506L104.82 17.2742C106.863 18.0713 108.357 18.968 108.357 21.1104C108.357 23.6761 106.19 24.8719 103.848 24.8719Z" fill="var(--fill-0, white)"/>
<path id="Vector_6" d="M122.648 11.6694V24.6229H120.556V22.5055C119.883 23.751 118.463 24.872 116.222 24.872C113.506 24.872 111.165 23.1781 111.165 19.292V11.6694H113.257V18.9931C113.257 21.6087 114.802 22.9539 116.869 22.9539C118.937 22.9539 120.556 21.6087 120.556 18.9931V11.6694H122.648Z" fill="var(--fill-0, white)"/>
<path id="Vector_7" d="M126.089 24.6227V11.6692H128.181V13.7867C128.854 12.5411 130.273 11.4202 132.515 11.4202C135.23 11.4202 137.572 13.1141 137.572 17.0002V24.6227H135.48V17.2991C135.48 14.6835 133.935 13.3383 131.867 13.3383C129.8 13.3383 128.181 14.6835 128.181 17.2991V24.6227H126.089Z" fill="var(--fill-0, white)"/>
<path id="Vector_8" d="M144.825 24.8719C142.408 24.8719 140.664 23.5765 140.266 21.3594L142.009 20.8862C142.358 22.2563 143.379 23.1281 144.825 23.1281C146.045 23.1281 147.266 22.5303 147.266 21.1104C147.266 20.0392 146.518 19.4912 145.024 18.8684L143.853 18.42C141.711 17.5482 140.814 16.2777 140.814 14.808C140.814 12.7654 142.582 11.4202 144.825 11.4202C146.892 11.4202 148.436 12.5661 148.884 14.3098L147.216 14.808C146.817 13.7369 146.045 13.139 144.899 13.139C143.778 13.139 142.882 13.7369 142.882 14.8329C142.882 15.655 143.404 16.3026 144.749 16.8506L145.796 17.2742C147.839 18.0713 149.333 18.968 149.333 21.1104C149.333 23.6761 147.166 24.8719 144.825 24.8719Z" fill="var(--fill-0, white)"/>
<path id="Vector_9" d="M15.5603 4.51455H15.5671C18.2556 4.51458 20.7337 5.40942 22.7185 6.9208L6.23117 23.5907C4.66876 21.5894 3.73705 19.0717 3.73703 16.3378C3.73703 9.80876 9.03125 4.51455 15.5603 4.51455Z" fill="var(--fill-0, #7F7F7F)" stroke="var(--stroke-0, black)" stroke-width="0.85917"/>
<path id="Vector_10" d="M24.7838 8.95813C26.4071 10.983 27.3844 13.5432 27.3844 16.338C27.3844 22.8656 22.0922 28.158 15.5651 28.1603C12.8168 28.1597 10.2976 27.2202 8.28969 25.6486L24.7838 8.95813Z" fill="var(--fill-0, #7F7F7F)" stroke="var(--stroke-0, black)" stroke-width="0.85917"/>
<path id="Vector_11" d="M21.6877 0.000697368V2.04284H28.1476L23.3618 6.88271L0.000136367 30.5103L1.45686 31.9465L7.65151 25.6845L24.8123 8.31951L29.7064 3.37023V10.0616H31.7486V0.000697368H21.6877Z" fill="var(--fill-0, #7F7F7F)"/>
</g>
<defs>
<clipPath id="clip0_0_220">
<rect width="149.333" height="32" fill="white"/>
</clipPath>
</defs>
</svg>
