<svg preserveAspectRatio="none" width="100%" height="100%" overflow="visible" style="display: block;" viewBox="0 0 148.915 22.233" fill="none" xmlns="http://www.w3.org/2000/svg">
<g id="Company logo">
<path id="Vector" fill-rule="evenodd" clip-rule="evenodd" d="M4.24124 16.134C4.24124 17.7316 5.10167 18.5304 6.9836 18.5304C8.86554 18.5304 9.53542 17.7316 9.53542 16.134V0.96248C9.53542 0.386 9.7574 0.132191 10.3016 0.132191H13.0754C13.649 0.132191 13.8415 0.387967 13.8415 0.96248V16.9033C13.8415 19.585 12.374 22.1093 6.98557 22.1093C1.62853 22.1093 0 19.585 0 16.9033V14.9849C0 14.4084 0.223947 14.1861 0.797565 14.1861H3.47707C4.05069 14.1861 4.2432 14.4084 4.2432 14.9849V16.134H4.24124ZM19.8055 21.0527C19.8055 21.6272 19.613 21.8515 19.0394 21.8515H16.3285C15.7549 21.8515 15.5309 21.6272 15.5309 21.0527V18.4674C15.5309 17.8929 15.7529 17.6666 16.3285 17.6666H19.0394C19.613 17.6666 19.8055 17.8929 19.8055 18.4674V21.0527Z" fill="var(--fill-0, white)"/>
<path id="Vector_2" d="M24.1823 21.9795C23.6716 21.9795 23.5124 21.6942 23.5124 21.1512V1.09046C23.5124 0.513981 23.7049 0.260172 24.2786 0.260172H31.2307C37.0023 0.260172 39.0139 2.78449 39.0139 5.46817V16.7755C39.0139 19.4591 37.0042 21.9815 31.2307 21.9815H24.1823V21.9795ZM27.8185 3.83514V18.4006H31.2307C33.3995 18.4006 34.7078 17.6038 34.7078 16.0062V6.23354C34.7078 4.63592 33.3995 3.83711 31.2307 3.83711H27.8185V3.83514Z" fill="var(--fill-0, white)"/>
<path id="Vector_3" fill-rule="evenodd" clip-rule="evenodd" d="M46.9907 12.4149C46.9907 12.9894 46.8001 13.2137 46.2245 13.2137H43.5136C42.94 13.2137 42.718 12.9894 42.718 12.4149V9.82962C42.718 9.25511 42.94 9.02885 43.5136 9.02885H46.2245C46.7982 9.02885 46.9907 9.25511 46.9907 9.82962V12.4149Z" fill="var(--fill-0, white)"/>
<path id="Vector_4" d="M55.0051 14.2764V21.1469C55.0051 21.7214 54.8126 21.9752 54.239 21.9752H51.4632C50.8896 21.9752 50.6971 21.7214 50.6971 21.1469V1.08618C50.6971 0.509704 50.8896 0.255895 51.4632 0.255895H58.162C63.9355 0.255895 65.8803 2.78021 65.8803 5.4639V9.07428C65.8803 11.756 63.9355 14.2803 58.162 14.2803H55.0051V14.2764ZM55.0051 3.83086V10.6994H58.162C60.2993 10.6994 61.6056 9.90063 61.6056 8.33646V6.22926C61.6056 4.63164 60.2993 3.83283 58.162 3.83283H55.0051V3.83086ZM69.1648 5.20615C69.1648 2.52247 71.143 0.000118542 76.9145 0.000118542C82.688 0.000118542 84.6643 2.52443 84.6643 5.20615V17.027C84.6643 19.7087 82.688 22.233 76.9145 22.233C71.143 22.233 69.1648 19.7087 69.1648 17.027V5.20615ZM80.3602 5.97151C80.3602 4.37389 79.0519 3.57509 76.9165 3.57509C74.7792 3.57509 73.5023 4.37389 73.5023 5.97151V16.2577C73.5023 17.8553 74.7792 18.6541 76.9165 18.6541C79.0538 18.6541 80.3602 17.8553 80.3602 16.2577V5.97151Z" fill="var(--fill-0, white)"/>
<path id="Vector_5" fill-rule="evenodd" clip-rule="evenodd" d="M106.461 11.9216C106.716 13.0057 106.94 14.7942 106.972 15.0834C107.003 14.8571 107.192 13.3579 107.545 11.9531L110.288 1.05898C110.417 0.547428 110.671 0.260172 111.213 0.260172H113.637C114.211 0.260172 114.372 0.547428 114.242 1.05898L109.17 21.1827C109.044 21.7277 108.724 21.9815 108.182 21.9815H105.471C104.993 21.9815 104.705 21.6942 104.579 21.1827L101.772 10.0662C101.579 9.36385 101.357 7.51242 101.326 7.15827C101.294 7.47897 101.037 9.42681 100.878 10.0662L98.0707 21.1827C97.943 21.7277 97.6562 21.9815 97.0806 21.9815H94.3716C93.8942 21.9815 93.6055 21.6942 93.4778 21.1827L88.4095 1.05898C88.2838 0.547428 88.4409 0.260172 89.0146 0.260172H91.8532C92.3973 0.260172 92.6508 0.547428 92.7784 1.05898L95.456 11.9531C95.7428 13.1356 95.9648 14.6348 95.9648 14.6348C95.9648 14.6348 96.1239 13.5802 96.5384 11.9531L99.2827 1.05898C99.4104 0.547428 99.6658 0.260172 100.239 0.260172H102.823C103.396 0.260172 103.652 0.547428 103.777 1.05898L106.461 11.9216ZM118.008 21.9815C117.432 21.9815 117.242 21.7277 117.242 21.1532V1.09243C117.242 0.515948 117.432 0.260172 118.008 0.260172H128.914C129.459 0.260172 129.714 0.452988 129.714 1.0275V3.04026C129.714 3.61478 129.459 3.83907 128.914 3.83907H121.548V9.01363H128.374C128.948 9.01363 129.203 9.20448 129.203 9.78096V11.6973C129.203 12.2403 128.948 12.4646 128.374 12.4646H121.546V18.4065H129.233C129.806 18.4065 130.028 18.5993 130.028 19.1739V21.1847C130.028 21.7592 129.806 21.9815 129.233 21.9815H118.008Z" fill="var(--fill-0, white)"/>
<path id="Vector_6" d="M138.038 13.7061V21.1512C138.038 21.7257 137.846 21.9795 137.272 21.9795H134.5C133.925 21.9795 133.734 21.7257 133.734 21.1512V1.09046C133.734 0.513981 133.925 0.260172 134.5 0.260172H141.195C146.969 0.260172 148.915 2.78449 148.915 5.46817V8.50011C148.915 10.385 147.957 12.1735 145.405 13.1001L148.85 21.1512C149.074 21.6608 148.691 21.9795 148.116 21.9795H145.309C144.861 21.9795 144.735 21.6608 144.511 21.1512L141.386 13.7061H141.195H138.038ZM138.038 3.83514V10.1272H141.195C143.332 10.1272 144.641 9.3304 144.641 7.73278V6.23157C144.641 4.63395 143.332 3.83514 141.195 3.83514H138.038Z" fill="var(--fill-0, white)"/>
</g>
</svg>
