<svg preserveAspectRatio="none" width="100%" height="100%" overflow="visible" style="display: block;" viewBox="0 0 79.9658 24.0001" fill="none" xmlns="http://www.w3.org/2000/svg">
<g id="pura">
<path id="Vector" d="M17.2671 2.94633C19.1128 4.75658 20.1502 6.93216 20.2552 9.48805C20.2933 10.4277 20.2502 11.2474 20.1257 11.9472C19.4714 15.6154 16.9482 18.5475 13.4122 19.7348C12.2653 20.1201 11.0235 20.2973 9.68671 20.2664C7.97642 20.2273 6.36292 19.7289 4.8462 18.7711C4.56902 18.5957 4.28731 18.4285 4.00105 18.2694C3.97937 18.2574 3.9549 18.2513 3.93011 18.2518C3.90531 18.2522 3.88109 18.2593 3.8599 18.2722C3.83871 18.285 3.82131 18.3033 3.80947 18.3251C3.79763 18.3469 3.79177 18.3714 3.79248 18.3962C3.82247 19.4304 3.83792 20.5032 3.83883 21.6146C3.84019 22.581 3.68207 23.3826 2.77831 23.8229C1.95906 24.2223 0.560472 23.9469 0.196513 22.9941C0.075648 22.6796 0.0138542 22.332 0.0111279 21.9513C-0.00704736 19.9783 -0.00295843 18.0999 0.0233957 16.316C0.0602005 13.9033 -0.0624848 11.3297 0.118813 9.0423C0.196058 8.06357 0.443697 7.09755 0.861728 6.14426C1.96042 3.63789 3.78113 1.83855 6.32384 0.746213C7.3771 0.29365 8.47806 0.049192 9.62673 0.0128416C10.6668 -0.021237 11.7628 0.0373788 12.7756 0.33727C14.5213 0.852538 16.0185 1.72223 17.2671 2.94633ZM16.4752 10.1301C16.4752 8.45224 15.8086 6.84311 14.6222 5.65669C13.4358 4.47027 11.8267 3.80375 10.1488 3.80375C8.47097 3.80375 6.86184 4.47027 5.67542 5.65669C4.489 6.84311 3.82247 8.45224 3.82247 10.1301C3.82247 11.8079 4.489 13.4171 5.67542 14.6035C6.86184 15.7899 8.47097 16.4564 10.1488 16.4564C11.8267 16.4564 13.4358 15.7899 14.6222 14.6035C15.8086 13.4171 16.4752 11.8079 16.4752 10.1301Z" fill="var(--fill-0, white)"/>
<path id="Vector_2" d="M37.5321 18.6084C35.3947 20.0533 32.9124 20.6531 30.4301 20.1119C28.9052 19.7793 27.5134 19.1359 26.2548 18.1817C24.3764 16.7577 23.2432 14.8838 22.8551 12.5601C22.7147 11.7218 22.6643 10.8398 22.6684 9.95923C22.6811 6.89943 22.6756 4.38398 22.652 2.41287C22.6397 1.44777 22.8851 0.377705 23.9647 0.0941712C25.5405 -0.318861 26.5002 0.67078 26.5097 2.20159C26.527 4.81701 26.5243 7.3729 26.5015 9.86927C26.4915 10.9471 26.5611 11.7631 26.7101 12.3175C27.2676 14.3963 29.0765 16.1097 31.2603 16.3974C33.145 16.6445 34.7558 16.1179 36.0926 14.8175C36.7796 14.1495 37.2572 13.3616 37.5253 12.4538C37.6998 11.8649 37.7902 10.9761 37.7965 9.78748C37.8083 7.35563 37.8047 4.822 37.7856 2.18659C37.7829 1.73403 37.8115 1.29783 38.0555 0.906603C38.3291 0.470397 38.6735 0.202765 39.0888 0.10371C40.0394 -0.121663 40.7618 0.119613 41.2562 0.827538C41.5261 1.21603 41.5793 1.79674 41.5793 2.25339C41.5829 7.79774 41.5874 13.1199 41.5929 18.2199C41.5942 19.5162 40.7191 20.3982 39.3941 20.2346C38.9016 20.1737 38.5204 19.9856 38.2505 19.6703C37.9956 19.3745 37.9042 18.9982 37.7256 18.6574C37.7167 18.6407 37.7045 18.6261 37.6896 18.6144C37.6747 18.6027 37.6576 18.5943 37.6394 18.5897C37.6211 18.585 37.6021 18.5843 37.5836 18.5875C37.5652 18.5908 37.5476 18.5979 37.5321 18.6084Z" fill="var(--fill-0, white)"/>
<path id="Vector_3" d="M48.4058 1.99354C48.4794 1.99081 48.6102 1.96218 48.6702 1.91993C50.1383 0.892116 51.8791 0.177831 53.5843 0.0524221C54.5395 -0.0184614 55.4923 0.00652791 56.4429 0.127393C57.4107 0.250076 58.5816 0.548605 59.2468 1.24381C59.8503 1.87358 59.9739 2.56651 59.6176 3.3226C59.3314 3.92874 58.8743 4.29452 58.2463 4.41993C57.6751 4.53307 57.0372 4.24272 56.4592 4.06143C54.5917 3.47527 52.5974 3.83923 51.0107 4.92566C49.6049 5.88895 48.7311 7.258 48.3894 9.03281C48.3058 9.46811 48.2654 10.0574 48.2681 10.8008C48.2781 13.1881 48.2826 15.4986 48.2817 17.7324C48.2817 17.9768 48.2767 18.2258 48.2667 18.4794C48.1659 20.9535 44.4472 20.8076 44.4581 18.3008C44.4817 13.279 44.4808 7.98137 44.4554 2.40793C44.4527 1.74408 44.5358 1.06524 45.0034 0.545879C45.46 0.0415162 46.3324 -0.0934337 46.939 0.0742328C47.8183 0.318235 48.2163 1.0407 48.3076 1.90766C48.3104 1.93184 48.322 1.95412 48.3402 1.97003C48.3584 1.98595 48.3818 1.99434 48.4058 1.99354Z" fill="var(--fill-0, white)"/>
<path id="Vector_4" d="M76.0955 18.3585C76.0883 18.3371 76.0764 18.3176 76.0606 18.3014C76.0449 18.2852 76.0258 18.2727 76.0046 18.2649C75.9834 18.257 75.9608 18.254 75.9383 18.2561C75.9158 18.2581 75.894 18.2652 75.8746 18.2767C75.4139 18.5535 74.9818 18.8561 74.5101 19.1028C71.6707 20.5927 68.1961 20.6963 65.2789 19.2269C62.549 17.8519 60.7878 15.645 59.9954 12.6061C59.2007 9.55808 59.8291 6.33697 61.7961 3.86014C63.4359 1.79225 66.06 0.260084 68.6636 0.0501603C70.8446 -0.125685 72.9139 0.208285 74.8168 1.31107C77.9643 3.13632 79.9586 6.36288 79.9532 10.0393C79.9486 12.4884 79.9527 15.0761 79.9654 17.8024C79.9691 18.4621 79.9045 18.9251 79.7719 19.1914C79.3747 19.9911 78.7032 20.336 77.7571 20.226C76.957 20.1333 76.3763 19.599 76.2168 18.8097C76.185 18.6525 76.1445 18.5021 76.0955 18.3585ZM76.1323 10.1265C76.1323 8.44866 75.4657 6.83953 74.2793 5.65311C73.0929 4.46669 71.4838 3.80016 69.8059 3.80016C68.1281 3.80016 66.5189 4.46669 65.3325 5.65311C64.1461 6.83953 63.4796 8.44866 63.4796 10.1265C63.4796 11.8044 64.1461 13.4135 65.3325 14.5999C66.5189 15.7863 68.1281 16.4529 69.8059 16.4529C71.4838 16.4529 73.0929 15.7863 74.2793 14.5999C75.4657 13.4135 76.1323 11.8044 76.1323 10.1265Z" fill="var(--fill-0, white)"/>
</g>
</svg>
