<svg preserveAspectRatio="none" width="100%" height="100%" overflow="visible" style="display: block;" viewBox="0 0 113.994 24" fill="none" xmlns="http://www.w3.org/2000/svg">
<g id="Company icon">
<path id="path10" d="M28.5123 21.3206C26.488 22.9971 23.9164 24 21.1124 24C18.3085 24 15.7294 22.9971 13.7126 21.3206C14.1699 21.4278 14.6348 21.4813 15.1071 21.4813C15.287 21.4813 15.467 21.4737 15.6469 21.4584C17.2513 22.4306 19.1182 22.9818 21.1199 22.9818C23.1142 22.9818 24.9886 22.423 26.593 21.4584C26.7729 21.4737 26.9454 21.4813 27.1328 21.4813C27.5901 21.4813 28.055 21.4201 28.5123 21.3206ZM21.105 0C24.3513 0 27.2827 1.33971 29.412 3.51388C30.754 4.88421 31.7736 6.58373 32.3434 8.48995H31.2938C30.754 6.86699 29.8693 5.4201 28.7072 4.23349C26.7579 2.24306 24.0739 1.01818 21.105 1.01818C18.136 1.01818 15.452 2.25072 13.5027 4.23349C12.3406 5.41244 11.4484 6.86699 10.9161 8.48995H9.86649C10.4363 6.59139 11.4559 4.89187 12.7979 3.51388C14.9272 1.34737 17.8661 0 21.105 0ZM21.105 2.31962C23.7215 2.31962 26.0982 3.4067 27.815 5.15981C28.7372 6.10144 29.4719 7.23445 29.9518 8.48995H28.2424C27.8525 7.67081 27.3277 6.92057 26.7054 6.28517C25.2735 4.82297 23.2942 3.91962 21.105 3.91962C18.9157 3.91962 16.9365 4.82297 15.5045 6.28517C14.8822 6.92057 14.3574 7.67081 13.9675 8.48995H12.2581C12.738 7.23445 13.4727 6.09378 14.3949 5.15981C16.1192 3.4067 18.4959 2.31962 21.105 2.31962ZM17.3263 14.8364H7.47485H6.89006C5.82545 14.7368 4.97075 13.8335 4.90328 12.7541H15.512C15.9468 12.8383 16.3592 13.0603 16.674 13.3895C17.0564 13.7722 17.2888 14.2852 17.3263 14.8364ZM12.0857 15.7856C12.2281 16.3368 12.513 16.8421 12.9029 17.2325C13.4727 17.8144 14.2449 18.1665 15.1071 18.1665C15.9618 18.1665 16.7415 17.8067 17.3113 17.2325C17.8811 16.6584 18.226 15.8622 18.226 14.9818C18.226 14.1014 17.8736 13.3129 17.3113 12.7311C16.749 12.1493 15.9693 11.7971 15.1071 11.7971H2.57162H1.98683C0.922208 11.6976 0.0675153 10.7943 3.95904e-05 9.71483H15.1071C16.5316 9.71483 17.8211 10.312 18.7508 11.2612C19.6805 12.2105 20.2653 13.5349 20.2653 14.9818C20.2653 16.4364 19.688 17.7531 18.7508 18.7024C17.8211 19.6517 16.5241 20.2488 15.1071 20.2488C13.6826 20.2488 12.3931 19.6517 11.4634 18.7024C10.7062 17.9292 10.1814 16.911 10.0089 15.778H12.0857V15.7856ZM24.8986 14.8364H34.7425H35.3273C36.392 14.7368 37.2467 13.8335 37.3141 12.7541H26.7129C26.2781 12.8383 25.8657 13.0603 25.5509 13.3895C25.161 13.7722 24.9286 14.2852 24.8986 14.8364ZM30.1317 15.7856C29.9893 16.3368 29.7044 16.8421 29.3145 17.2325C28.7447 17.8144 27.9725 18.1665 27.1103 18.1665C26.2481 18.1665 25.4759 17.8067 24.9061 17.2325C24.3363 16.6584 23.9914 15.8622 23.9914 14.9818C23.9914 14.1014 24.3438 13.3129 24.9061 12.7311C25.4684 12.1493 26.2481 11.7971 27.1103 11.7971H39.6458H40.2306C41.2952 11.6976 42.1499 10.7943 42.2174 9.71483H27.1178C25.6933 9.71483 24.4038 10.312 23.4741 11.2612C22.5444 12.2105 21.9596 13.5349 21.9596 14.9818C21.9596 16.4364 22.5444 17.7531 23.4741 18.7024C24.4038 19.6517 25.7008 20.2488 27.1178 20.2488C28.5423 20.2488 29.8318 19.6517 30.7615 18.7024C31.5187 17.9292 32.0435 16.911 32.216 15.778H30.1317V15.7856Z" fill="var(--fill-0, white)"/>
<path id="path12" d="M111.187 11.9787C111.187 13.9425 109.621 15.542 107.698 15.542H105.449V8.03544H107.698C109.621 8.03544 111.187 9.63493 111.187 11.5987V11.9787ZM107.465 5.56494H102.75V18.0283H107.465C110.83 18.0283 113.994 15.8112 113.994 11.8045C113.994 7.79789 110.846 5.56494 107.465 5.56494ZM89.1794 11.6303H86.5894V8.03544H89.1794C90.1565 8.03544 91.3662 8.27299 91.3662 9.82497C91.3662 11.3928 90.1565 11.6303 89.1794 11.6303ZM94.0959 9.71411C94.0959 7.00606 92.2968 5.56494 89.4896 5.56494H83.9063V18.0283H86.5894V14.0533H88.6986L90.6683 17.284C91.5058 18.5034 93.1033 18.7409 94.344 18.06L91.4903 13.6099C92.2503 13.2773 94.0959 12.3588 94.0959 9.71411ZM71.7935 5.56494H74.4766V18.0283H71.7935V5.56494ZM57.6646 15.6211H55.0125V12.8814H57.6646C58.4866 12.8814 60.1151 12.8022 60.1151 14.2592C60.1151 15.7162 58.4866 15.6211 57.6646 15.6211ZM55.028 7.97209H57.3234C58.0368 7.97209 59.4482 7.9721 59.4482 9.28653C59.4482 10.601 58.0368 10.601 57.3234 10.601H55.028V7.97209ZM60.4873 11.5195C61.5729 10.8543 62.0692 10.0308 62.0692 8.95396C62.0692 8.92229 62.0692 8.85894 62.0692 8.82726C62.0692 6.6735 60.3167 5.56494 58.1299 5.56494H50.1581C50.2357 6.80019 51.1042 7.8454 52.3914 7.94042C52.3914 9.82497 52.3914 18.0283 52.3914 18.0283C52.3914 18.0283 57.6026 18.0283 58.1764 18.0283C61.5109 18.0283 62.7361 16.4446 62.7361 14.6076C62.7671 12.8814 61.9607 12.1213 60.4873 11.5195Z" fill="var(--fill-0, white)"/>
</g>
</svg>
