<svg preserveAspectRatio="none" width="100%" height="100%" overflow="visible" style="display: block;" viewBox="0 0 120.853 24.0001" fill="none" xmlns="http://www.w3.org/2000/svg">
<g id="ziprecruiter">
<path id="Vector" d="M93.6557 4.37253C93.6557 3.6011 94.275 3.0011 95.0915 3.0011C95.9643 3.0011 96.5555 3.62967 96.5555 4.37253C96.5555 5.11538 95.9361 5.74396 95.0915 5.74396C94.275 5.77253 93.6557 5.11538 93.6557 4.37253ZM96.1332 7.37253C96.1895 7.37253 96.2458 7.42967 96.2458 7.48681V16.4868C96.2458 16.544 96.1895 16.6011 96.1332 16.6011H94.078C94.0217 16.6011 93.9654 16.544 93.9654 16.4868V7.48681C93.9654 7.42967 94.0217 7.37253 94.078 7.37253H96.1332ZM21.1307 14.3725L28.1692 5.28681C28.1974 5.25824 28.1692 5.2011 28.1129 5.2011H21.3278C21.2714 5.2011 21.2151 5.14396 21.2151 5.08681V3.11538C21.2151 3.05824 21.2714 3.0011 21.3278 3.0011H31.4069C31.4632 3.0011 31.5195 3.05824 31.5195 3.11538V5.14396C31.5195 5.17253 31.5195 5.2011 31.4914 5.22967L24.3684 14.3154C24.3402 14.344 24.3684 14.4011 24.4247 14.4011H31.4069C31.4632 14.4011 31.5195 14.4582 31.5195 14.5154V16.4868C31.5195 16.544 31.4632 16.6011 31.4069 16.6011H21.2151C21.1588 16.6011 21.1025 16.544 21.1025 16.4868V14.4582C21.1025 14.4297 21.1307 14.4011 21.1307 14.3725ZM48.0742 3.11538C48.0742 3.05824 48.1305 3.0011 48.1868 3.0011H52.3817C56.2388 3.0011 57.731 4.42967 57.731 6.88681C57.731 9.42967 55.9292 10.4868 54.7185 10.6297C54.6904 10.6297 54.6622 10.6582 54.6904 10.6868L58.097 16.4582C58.1252 16.5154 58.097 16.6011 58.0126 16.6011H55.3661C55.3098 16.6011 55.2535 16.5725 55.2535 16.5154L52.2128 10.8868C52.1847 10.8582 52.1565 10.8297 52.1283 10.8297H50.4954C50.4673 10.8297 50.4391 10.8582 50.4391 10.8868V16.4868C50.4391 16.544 50.3828 16.6011 50.3265 16.6011H48.1586C48.1023 16.6011 48.046 16.544 48.046 16.4868V3.11538H48.0742ZM52.4662 8.74396C54.2118 8.74396 55.3661 8.34396 55.3661 6.85824C55.3661 5.6011 54.5496 5.05824 52.5225 5.05824H50.5236C50.4954 5.05824 50.4673 5.08681 50.4673 5.11538V8.68681C50.4673 8.71539 50.4954 8.74396 50.5236 8.74396H52.4662ZM74.9613 10.0582C74.905 10.1154 74.8487 10.1154 74.7924 10.0582C74.539 9.82967 73.8915 9.22967 73.0187 9.22967C72.0051 9.22967 70.4848 9.91539 70.4848 12.0011C70.4848 14.144 72.1459 14.7725 73.075 14.7725C73.9196 14.7725 74.6235 14.2297 74.8206 14.0011C74.8769 13.944 74.9332 13.944 74.9895 14.0011L76.3409 15.4868C76.3972 15.544 76.369 15.6011 76.3409 15.6582C75.6652 16.2868 74.5953 16.8582 73.1595 16.8582C70.8508 16.8582 68.2325 15.344 68.2325 12.0297C68.2325 8.8011 70.7101 7.2011 73.1595 7.2011C74.5109 7.2011 75.5526 7.74396 76.369 8.51539C76.4253 8.57253 76.4253 8.62967 76.369 8.68681L74.9613 10.0582ZM60.462 12.8011C60.4338 12.8011 60.4057 12.8297 60.4057 12.8582C60.5183 13.9154 61.6444 14.9725 62.8269 14.9725C64.0657 14.9725 64.6569 14.4582 65.1919 13.8011C65.22 13.744 65.3045 13.744 65.3326 13.7725L66.7685 14.8868C66.8248 14.9154 66.8248 15.0011 66.7966 15.0582C65.8676 16.144 64.6851 16.8011 63.024 16.8011C60.4057 16.8011 58.097 15.0011 58.097 11.9725C58.097 9.05824 60.2649 7.14396 62.8832 7.14396C65.3608 7.14396 67.2753 9.25824 67.2753 12.144V12.6582C67.2753 12.7154 67.219 12.7725 67.1626 12.7725L60.462 12.8011ZM64.9948 11.0582C65.0229 11.0582 65.0511 11.0297 65.0511 11.0011C65.0511 9.88681 64.0657 8.85824 62.8269 8.85824C61.5881 8.85824 60.5746 9.62967 60.4338 10.9725C60.4338 11.0011 60.462 11.0297 60.4901 11.0297L64.9948 11.0582ZM107.057 12.8011C107.029 12.8011 107.001 12.8297 107.001 12.8582C107.113 13.9154 108.239 14.9725 109.422 14.9725C110.661 14.9725 111.252 14.4582 111.787 13.8011C111.815 13.744 111.9 13.744 111.928 13.7725L113.364 14.8868C113.42 14.9154 113.42 15.0011 113.392 15.0582C112.463 16.144 111.28 16.8011 109.619 16.8011C107.001 16.8011 104.692 15.0011 104.692 11.9725C104.692 9.05824 106.86 7.14396 109.478 7.14396C111.956 7.14396 113.87 9.25824 113.87 12.144V12.6582C113.87 12.7154 113.814 12.7725 113.758 12.7725L107.057 12.8011ZM111.59 11.0582C111.618 11.0582 111.646 11.0297 111.646 11.0011C111.646 9.88681 110.661 8.85824 109.422 8.85824C108.183 8.85824 107.17 9.62967 107.029 10.9725C107.029 11.0011 107.057 11.0297 107.085 11.0297L111.59 11.0582ZM77.636 7.37253H79.4097C79.466 7.37253 79.5223 7.4011 79.5223 7.45824L79.7757 8.82967H79.8038C80.7611 6.94396 83.0134 7.22967 83.2105 7.25824C83.2668 7.25824 83.2949 7.31539 83.2949 7.42967V9.2011C83.2949 9.25824 83.2386 9.31539 83.1823 9.31539C83.1823 9.31539 82.76 9.22967 82.394 9.22967C80.93 9.22967 79.8883 10.5725 79.7757 12.3725V16.4582C79.7757 16.5154 79.7194 16.5725 79.6631 16.5725H77.6078C77.5515 16.5725 77.4952 16.5154 77.4952 16.4582V7.48681C77.5234 7.42967 77.5797 7.37253 77.636 7.37253ZM115.194 7.37253H116.967C117.024 7.37253 117.08 7.4011 117.08 7.45824L117.333 8.82967H117.361C118.319 6.94396 120.571 7.22967 120.768 7.25824C120.824 7.25824 120.853 7.31539 120.853 7.42967V9.2011C120.853 9.25824 120.796 9.31539 120.74 9.31539C120.74 9.31539 120.318 9.22967 119.952 9.22967C118.488 9.22967 117.446 10.5725 117.333 12.3725V16.4582C117.333 16.5154 117.277 16.5725 117.221 16.5725H115.165C115.109 16.5725 115.053 16.5154 115.053 16.4582V7.48681C115.081 7.42967 115.137 7.37253 115.194 7.37253ZM97.4283 9.22967V7.48681C97.4283 7.42967 97.4846 7.37253 97.5409 7.37253H99.2583C99.2865 7.37253 99.3146 7.34396 99.3146 7.31539V5.62967C99.3146 5.57253 99.3428 5.54396 99.3991 5.51538L101.454 4.74396C101.539 4.71538 101.595 4.77253 101.595 4.85824V7.31539C101.595 7.34396 101.623 7.37253 101.651 7.37253H103.988C104.045 7.37253 104.101 7.42967 104.101 7.48681V9.22967C104.101 9.28681 104.045 9.34396 103.988 9.34396H101.651C101.623 9.34396 101.595 9.37253 101.595 9.4011V13.3725C101.595 14.1725 101.736 14.8582 102.862 14.8582C103.284 14.8582 103.707 14.7725 103.988 14.6582C104.045 14.6297 104.101 14.6868 104.101 14.744V16.4297C104.101 16.4868 104.073 16.544 104.016 16.5725C103.65 16.744 102.947 16.8297 102.299 16.8297C101.201 16.8297 100.469 16.6011 100.047 16.1725C99.6525 15.7725 99.3428 15.144 99.3428 13.5725V9.4011C99.3428 9.37253 99.3146 9.34396 99.2865 9.34396H97.5691C97.4846 9.34396 97.4283 9.28681 97.4283 9.22967ZM88.2782 14.8297C87.3773 14.8297 86.6171 14.2582 86.589 13.2297V7.48681C86.589 7.42967 86.5327 7.37253 86.4764 7.37253H84.4211C84.3648 7.37253 84.3085 7.42967 84.3085 7.48681V12.9725C84.3085 15.2297 85.9696 16.8297 88.2501 16.8297H88.3064C90.5869 16.8297 92.248 15.2297 92.248 12.9725V7.48681C92.248 7.42967 92.1916 7.37253 92.1353 7.37253H90.0801C90.0238 7.37253 89.9675 7.42967 89.9675 7.48681V13.2297C89.9393 14.2582 89.1792 14.8297 88.2782 14.8297ZM39.3745 15.4868C39.3745 15.4582 39.4308 15.4297 39.459 15.4582C40.0502 16.2297 41.2327 16.8297 42.5278 16.8297C44.7238 16.8297 46.9198 15.0868 46.9198 12.0011C46.9198 8.71539 44.7238 7.17253 42.4433 7.17253C41.0075 7.17253 39.9095 7.88681 39.3464 8.74396C39.3182 8.77253 39.2901 8.77253 39.2619 8.71539L39.0085 7.48681C39.0085 7.42967 38.9522 7.4011 38.8959 7.4011H37.2348C37.1785 7.4011 37.1222 7.45824 37.1222 7.51539V20.8868C37.1222 20.944 37.1785 21.0011 37.2348 21.0011H39.2901C39.3464 21.0011 39.4027 20.944 39.4027 20.8868V15.4868H39.3745ZM42.2463 14.744C40.7541 14.744 39.5716 13.7154 39.5716 11.9725C39.5716 10.2297 40.7541 9.2011 42.2463 9.2011C43.119 9.2011 44.6957 9.8011 44.6957 11.9725C44.6957 14.144 43.0627 14.744 42.2463 14.744ZM32.702 4.37253C32.702 3.6011 33.3214 3.0011 34.1379 3.0011C35.0106 3.0011 35.6019 3.62967 35.6019 4.37253C35.6019 5.11538 34.9825 5.74396 34.1379 5.74396C33.3214 5.77253 32.702 5.11538 32.702 4.37253ZM35.1796 7.37253C35.2359 7.37253 35.2922 7.42967 35.2922 7.48681V16.4868C35.2922 16.544 35.2359 16.6011 35.1796 16.6011H33.1243C33.068 16.6011 33.0117 16.544 33.0117 16.4868V7.48681C33.0117 7.42967 33.068 7.37253 33.1243 7.37253H35.1796Z" fill="var(--fill-0, white)"/>
<path id="Vector_2" fill-rule="evenodd" clip-rule="evenodd" d="M13.1839 6.60446C13.0344 6.55461 12.8599 6.57953 12.6855 6.62938L12.0126 6.85368V0.598226C12.0126 0.274238 11.7384 9.47145e-05 11.4144 9.47145e-05H2.56707C2.24309 9.47145e-05 1.96894 0.274238 1.96894 0.598226V6.8786L1.29604 6.6543C1.12159 6.60446 0.947135 6.57953 0.797602 6.62938C0.548381 6.67922 9.4577e-05 6.92844 9.4577e-05 7.90041V13.1341C0.0748609 13.5826 0.373926 14.106 1.04682 14.106H3.28981C3.51411 14.3802 4.0624 14.8288 5.10913 14.9035C5.13405 15.6761 5.58265 16.3241 6.25555 16.5982V18.0686C6.25555 18.0936 6.23062 18.1185 6.2057 18.1185C3.06552 18.2182 1.07175 19.215 0.498537 19.539C0.149627 19.7384 0.0748609 20.1621 0.0748609 20.4362V21.5826C0.0997831 21.9814 0.423771 22.3054 0.847447 22.3054C1.22128 22.3054 1.54527 21.9814 1.57019 21.6076C1.59511 21.2337 1.34589 20.9347 0.996979 20.835C0.972057 20.835 0.947135 20.8101 0.947135 20.7851V20.3615C0.947135 20.2618 0.996979 20.1621 1.09667 20.1122C1.94402 19.6387 4.11224 19.4144 5.7571 19.3147H6.23062C6.25555 19.3147 6.28047 19.3397 6.28047 19.3646C6.35524 20.6855 6.50477 21.8069 6.55461 22.5048H6.50477C6.23062 22.5048 5.9814 22.8288 5.9814 23.2524C5.9814 23.6761 6.23062 24.0001 6.50477 24.0001H7.50165C7.7758 24.0001 8.02502 23.6761 8.02502 23.2524C8.02502 22.8288 7.7758 22.5048 7.50165 22.5048H7.45181C7.45181 22.5048 7.62626 20.6855 7.72595 19.3646C7.72595 19.3397 7.75087 19.3147 7.7758 19.3147H8.24932C9.89418 19.3895 12.0624 19.6387 12.9098 20.1122C13.0094 20.1621 13.0593 20.2618 13.0593 20.3615V20.7851C13.0593 20.8101 13.0344 20.835 13.0094 20.835C12.6605 20.9098 12.4113 21.2337 12.4362 21.6076C12.4612 21.9814 12.7851 22.3054 13.159 22.3054C13.5577 22.3054 13.9066 22.0063 13.9316 21.5826V20.4362C13.9316 20.1621 13.8568 19.7633 13.5079 19.539C12.9347 19.215 10.916 18.2182 7.80072 18.0936C7.7758 18.0936 7.75087 18.0686 7.75087 18.0437V16.5733C8.42377 16.2992 8.87237 15.6512 8.89729 14.8786C9.9191 14.8038 10.4674 14.3303 10.7166 14.0811H12.9596C13.6325 14.0811 13.9316 13.5577 14.0063 13.1091V7.87548C13.9814 6.90352 13.4331 6.67922 13.1839 6.60446ZM1.96894 12.0375L0.947135 12.8101C0.922213 12.835 0.897291 12.8101 0.897291 12.7851V7.87548C0.897291 7.67611 0.922213 7.42689 1.0219 7.45181L1.9191 7.75087C1.94402 7.75087 1.96894 7.80072 1.96894 7.82564V12.0375ZM13.0593 12.8101L12.0375 12.0375V7.85056C12.0375 7.82564 12.0624 7.80072 12.0873 7.7758L12.9845 7.47673C13.1091 7.45181 13.1091 7.70103 13.1091 7.90041V12.8101C13.1091 12.8101 13.0842 12.835 13.0593 12.8101Z" fill="var(--fill-0, #7F7F7F)"/>
</g>
</svg>
