<svg preserveAspectRatio="none" width="100%" height="100%" overflow="visible" style="display: block;" viewBox="0 0 147.016 16" fill="none" xmlns="http://www.w3.org/2000/svg">
<g id="Layer_1" clip-path="url(#clip0_0_170)">
<path id="Vector" d="M47.8911 8.1987C47.8911 10.3446 47.8516 12.4805 47.9109 14.6165C47.9406 15.6054 47.5055 15.7636 46.6056 15.9317C44.1631 16.3668 42.9665 14.5176 41.4832 13.2914C37.7947 10.216 34.1853 7.05161 30.5364 3.92676C30.1804 3.6301 29.8738 3.06644 29.2904 3.31366C28.6575 3.58066 28.8454 4.21354 28.8454 4.72775C28.8454 7.9416 28.8454 11.1554 28.885 14.3594C28.9047 15.4076 28.5586 15.8229 27.4709 15.8427C26.3139 15.8625 26.2051 15.2197 26.2051 14.3495C26.2051 10.0281 26.2051 5.70674 26.1853 1.38535C26.1853 0.455811 26.6204 0.22837 27.5401 0.0800388C30.4276 -0.394621 31.9604 1.68202 33.7403 3.20488C37.1717 6.14184 40.702 8.95025 43.9752 12.0652C44.2422 12.3124 44.5191 12.4706 44.8553 12.263C45.2706 12.0059 45.241 11.5708 45.2311 11.1554C45.2212 8.07015 45.2113 4.97497 45.1915 1.88968C45.1915 0.445922 45.3596 0.258036 46.6551 0.248148C47.8417 0.248148 47.9208 0.970026 47.901 1.89957C47.8615 3.99598 47.8911 6.10229 47.8911 8.1987Z" fill="var(--fill-0, white)"/>
<path id="Vector_2" d="M126.783 8.06922C126.783 5.93325 126.803 3.78739 126.773 1.65142C126.763 0.880097 126.951 0.296661 127.821 0.346105C128.583 0.395548 129.423 0.405437 129.255 1.64153C129.137 2.53152 129.226 3.45117 129.206 4.35105C129.186 5.2707 129.611 5.72559 130.541 5.7157C132.479 5.70581 134.407 5.66625 136.346 5.7157C137.651 5.74536 138.234 4.6576 139.095 4.03461C140.341 3.11495 141.448 2.0173 142.615 1.00865C143.693 0.0791082 145.038 0.46477 146.264 0.395548C146.877 0.365882 146.58 0.880097 146.284 1.1372C144.375 2.74907 142.477 4.38071 140.538 5.95303C139.688 6.64524 139.559 7.42645 140.341 8.22744C142.368 10.3041 144.405 12.3609 146.442 14.4376C146.719 14.7145 147.194 14.9617 146.956 15.4363C146.758 15.8418 146.294 15.5946 145.948 15.6539C144.603 15.9209 143.723 15.2485 142.872 14.309C141.201 12.4598 139.451 10.6798 137.72 8.87021C137.245 8.37577 136.702 8.10877 135.98 8.10877C134.21 8.10877 132.449 8.20766 130.679 8.04944C129.779 7.97033 129.206 8.44499 129.226 9.46353C129.255 11.1051 129.186 12.7565 129.265 14.398C129.315 15.4264 128.82 15.6539 127.95 15.6934C126.961 15.733 126.783 15.1693 126.793 14.3684C126.803 12.2719 126.793 10.1755 126.793 8.06922H126.783Z" fill="var(--fill-0, white)"/>
<path id="Vector_3" d="M54.2329 0.262614C54.6447 0.262675 54.9632 0.359278 55.1674 0.609294C55.3644 0.850478 55.4201 1.19481 55.4155 1.6005L55.4145 1.6884C55.4145 1.69244 55.4145 1.69677 55.4145 1.70109C55.4141 1.76702 55.4138 1.86431 55.4135 1.98918C55.4129 2.23901 55.4117 2.59892 55.4116 3.038C55.4113 3.91613 55.4124 5.11151 55.4135 6.38078C55.4158 8.91985 55.4207 11.7543 55.4252 12.9355V12.9364C55.4253 13.1299 55.5615 13.2847 55.7309 13.3202L55.8051 13.328L69.517 13.3466H69.5239C69.6993 13.3536 69.872 13.3632 70.0288 13.3886C70.1857 13.414 70.3394 13.4572 70.4721 13.5409C70.756 13.7202 70.8832 14.0396 70.8735 14.5273V14.5282C70.8643 14.9248 70.8119 15.2532 70.5922 15.4667C70.4277 15.6264 70.1953 15.6964 69.9018 15.7196L69.5873 15.7294C65.7035 15.6735 55.9318 15.6903 54.8188 15.7089L54.8198 15.7099L54.8178 15.7089V15.7099H54.8081L54.8071 15.7089C53.9062 15.7126 53.186 14.9796 53.186 14.0663V2.35441C53.186 2.03927 53.1819 1.75409 53.1899 1.51164C53.1979 1.26947 53.2186 1.05078 53.2758 0.868083C53.3346 0.680515 53.4346 0.521944 53.604 0.413981C53.7687 0.30906 53.9786 0.265117 54.2309 0.262614H54.2329Z" fill="var(--fill-0, white)" stroke="var(--stroke-0, white)" stroke-width="0.355556"/>
<path id="Vector_4" d="M8.10753 0.491211V0.492188C10.8161 0.551717 13.533 0.531764 16.254 0.492188C17.8336 0.478437 19.1559 0.834644 20.2706 1.5166C21.3587 2.18239 22.2745 3.17637 23.0411 4.49512V4.5L23.1066 4.61523C23.7195 5.68007 24.0275 7.37013 23.8722 9.05566C23.7165 10.7441 23.1085 12.3059 22.0255 13.1924L22.0226 13.1953C21.8983 13.2988 21.7817 13.3962 21.6759 13.4756C19.4835 15.1047 16.9552 15.3223 14.2735 15.2979L13.1153 15.2754C10.7793 15.215 8.53976 15.2959 6.25304 15.0996H6.25402C4.94766 14.9845 3.51526 14.187 2.39073 13.0342C1.26536 11.8804 0.524938 10.45 0.49425 9.15234C0.494254 8.45136 0.494399 7.77038 0.542102 7.10254C0.701947 5.00548 1.65529 3.0174 3.32335 1.82324H3.32433C4.61609 0.898062 6.18682 0.453614 8.10753 0.491211ZM7.84874 2.17285C4.77989 2.19431 2.19543 4.51427 1.99913 7.48047C1.79546 10.5587 4.11509 13.5471 7.27159 13.7119V13.7129C10.4425 13.8819 13.6365 13.8915 16.8126 13.6924L16.8116 13.6904C20.1696 13.4988 22.2791 10.742 22.1202 7.44043H22.1212C21.9892 4.57349 19.4361 2.1841 16.2501 2.17285H7.84874Z" fill="var(--fill-0, white)" stroke="var(--stroke-0, white)" stroke-width="0.988875"/>
<path id="Vector_5" d="M81.3544 0.493164V0.494141C84.0631 0.553668 86.7804 0.523787 89.498 0.494141C91.0785 0.480029 92.4019 0.836111 93.5185 1.51855C94.6376 2.20265 95.5781 3.2321 96.3623 4.60547L96.3632 4.60742C96.976 5.67229 97.2842 7.36245 97.1289 9.04785C96.9732 10.7363 96.3651 12.2981 95.2822 13.1846L95.2783 13.1865L94.9326 13.4678C92.4271 15.3297 89.4825 15.3471 86.372 15.2676C84.0357 15.2072 81.7957 15.2881 79.5087 15.0918H79.5097C78.2034 14.9766 76.7719 14.1791 75.6474 13.0264C74.5923 11.9447 73.8754 10.6202 73.7646 9.38965L73.7509 9.14453C73.7413 8.45302 73.7508 7.76767 73.7988 7.0957C73.9485 5.00942 74.9011 3.02004 76.5703 1.8252C77.8622 0.899795 79.4333 0.455462 81.3544 0.493164ZM81.0947 2.1748C78.0258 2.19627 75.4414 4.51623 75.2451 7.48242C75.0478 10.4647 77.2194 13.3629 80.2255 13.6904L80.5185 13.7148C83.6892 13.8838 86.8827 13.8934 90.0585 13.6943L90.0576 13.6924C93.3109 13.5069 95.3926 10.9138 95.3749 7.75L95.3671 7.44141C95.2346 4.57479 92.6819 2.18586 89.496 2.1748H81.0947Z" fill="var(--fill-0, white)" stroke="var(--stroke-0, white)" stroke-width="0.988875"/>
<path id="Vector_6" d="M108.113 0.493164V0.494141C110.821 0.553668 113.539 0.523787 116.256 0.494141C117.842 0.480023 119.166 0.836192 120.281 1.51855C121.398 2.20248 122.336 3.23168 123.121 4.60547L123.122 4.60742C123.734 5.67229 124.043 7.36245 123.887 9.04785C123.731 10.7363 123.123 12.2981 122.04 13.1846L122.037 13.1865L121.691 13.4678C119.185 15.3297 116.241 15.3471 113.13 15.2676C110.794 15.2072 108.554 15.2881 106.267 15.0918H106.268C104.962 14.9766 103.53 14.1791 102.406 13.0264C101.351 11.9447 100.634 10.6202 100.523 9.38965L100.509 9.14453C100.5 8.45302 100.509 7.76767 100.557 7.0957C100.707 5.00942 101.659 3.02004 103.329 1.8252C104.621 0.899795 106.192 0.455462 108.113 0.493164ZM107.853 2.1748C104.784 2.19627 102.2 4.51623 102.003 7.48242C101.806 10.4647 103.978 13.3629 106.984 13.6904L107.277 13.7148C110.448 13.8838 113.641 13.8934 116.817 13.6943L116.816 13.6924C120.069 13.5069 122.151 10.9138 122.133 7.75L122.125 7.44141C121.993 4.57479 119.44 2.18586 116.254 2.1748H107.853Z" fill="var(--fill-0, white)" stroke="var(--stroke-0, white)" stroke-width="0.988875"/>
</g>
<defs>
<clipPath id="clip0_0_170">
<rect width="147.016" height="16" fill="white"/>
</clipPath>
</defs>
</svg>
