<svg preserveAspectRatio="none" width="100%" height="100%" overflow="visible" style="display: block;" viewBox="0 0 112.832 28" fill="none" xmlns="http://www.w3.org/2000/svg">
<g id="sFox" clip-path="url(#clip0_0_108)">
<g id="Company icon">
<path id="Vector" d="M45.6282 15.2291C43.1614 14.6515 42.6579 14.1912 42.6579 13.6805C42.6579 12.8646 43.6596 12.3169 45.1532 12.3169C46.5844 12.3169 47.7843 13.0154 48.1378 14.0532L48.3019 14.5362L51.5246 13.7605L51.3151 13.1864C50.455 10.8264 47.9795 9.24157 45.1521 9.24157C41.6033 9.24157 39.2165 11.0941 39.2165 13.8515C39.2165 16.5649 41.2923 17.5502 44.883 18.3348C47.9075 19.0081 48.5155 19.5548 48.5155 20.2199C48.5155 21.2215 47.1328 21.9232 45.1548 21.9232C43.0382 21.9232 41.6395 20.9157 41.5902 19.3589L41.5732 18.823H38.2814L38.2925 19.3867C38.3595 22.743 41.1131 25.0002 45.1532 25.0002C49.2042 25.0002 51.9257 23.0351 51.9257 20.107C51.9257 17.0812 49.616 16.0271 45.6282 15.2291Z" fill="var(--fill-0, white)"/>
<path id="Vector_2" d="M54.861 24.7133H58.5922V15.4712H67.456V12.1145H58.5922V7.63978H68.7862V4.28049H54.861V24.7133Z" fill="var(--fill-0, white)"/>
<path id="Vector_3" d="M80.3091 4.00344C74.1859 4.00344 70.0703 8.21031 70.0703 14.4735C70.0703 20.7702 74.1837 24.9996 80.3091 24.9996C86.4344 24.9996 90.5458 20.7698 90.5458 14.4732C90.5458 8.20994 86.4337 4.00344 80.3091 4.00344ZM80.3091 21.6425C76.416 21.6425 73.7988 18.7633 73.7988 14.4735C73.7988 10.2198 76.416 7.36272 80.3091 7.36272C84.2021 7.36272 86.8186 10.2198 86.8186 14.4735C86.8186 18.76 84.2014 21.6425 80.3091 21.6425Z" fill="var(--fill-0, white)"/>
<path id="Vector_4" d="M112.688 21.354C108.13 21.354 105.607 17.2767 104.941 16.0264L104.128 14.497L104.94 12.968C107.031 9.03789 110.42 7.6401 112.686 7.6401H112.826V4.28049H112.685C109.417 4.28049 105.008 6.02589 102.186 10.8757C99.3669 6.02589 94.9561 4.28049 91.687 4.28049H91.5483V7.6401H91.6921C93.9583 7.6401 97.3477 9.03435 99.4384 12.968L100.252 14.497L99.4355 16.0264C98.771 17.2767 96.2467 21.354 91.6892 21.354H91.5483V24.7136H91.6921C95.8964 24.7136 99.7828 22.2593 102.191 18.1181C104.599 22.2593 108.486 24.7136 112.69 24.7136H112.831V21.354H112.688Z" fill="var(--fill-0, white)"/>
</g>
<path id="Vector_5" d="M3.50491 10.7785H3.28716C3.04562 10.7777 2.81227 10.6911 2.62915 10.5341C2.44602 10.377 2.32515 10.16 2.28831 9.92204L2.2807 9.8667H1.22733L1.2194 9.92204C1.18268 10.16 1.06185 10.3772 0.878694 10.5342C0.695536 10.6913 0.462118 10.7779 0.220539 10.7785H0.000479613V11.5566H3.50491V10.7785Z" fill="var(--fill-0, #7F7F7F)"/>
<g id="Company icon_2">
<path id="Vector_6" d="M26.4562 -0.0028127C24.1171 -0.00456456 21.8317 0.6962 19.8979 2.00815C17.9641 3.3201 16.4715 5.18239 15.6148 7.35229H13.6488V7.56875C13.6492 7.80941 13.7361 8.04195 13.8937 8.22425C14.0513 8.40654 14.2692 8.52657 14.5079 8.56253L14.5647 8.5688V9.61865L14.5099 9.62624C14.271 9.66205 14.053 9.78208 13.8954 9.96452C13.7378 10.1469 13.651 10.3797 13.6507 10.6204V10.8348H18.349L18.4108 10.3901C18.5338 9.53907 18.7955 8.71373 19.1856 7.9469C19.9605 6.42663 21.1913 5.18492 22.7069 4.3945C23.3376 4.06594 24.0093 3.82224 24.7043 3.6698V9.86276H24.9234C25.1652 9.8635 25.3988 9.95045 25.5819 10.1079C25.7651 10.2653 25.8858 10.4828 25.9222 10.7212L25.9301 10.7759H26.9829L26.9908 10.7209C27.0271 10.4823 27.1479 10.2646 27.3313 10.1072C27.5147 9.94978 27.7487 9.86306 27.9906 9.86276H28.2084V-0.0028127H26.4562Z" fill="var(--fill-0, #7F7F7F)"/>
<path id="Vector_7" d="M28.2081 9.47825V9.86664H27.9903C27.7483 9.86693 27.5144 9.95366 27.331 10.1111C27.1476 10.2685 27.0268 10.4862 26.9904 10.7248L26.9825 10.7797H25.9298L25.9218 10.7251C25.8855 10.4867 25.7648 10.2692 25.5816 10.1118C25.3985 9.95432 25.1648 9.86737 24.923 9.86664H24.7039V9.47825V17.2952C22.6895 17.6051 20.7912 18.4345 19.1973 19.7013C17.6034 20.968 16.3694 22.6281 15.6174 24.5169H14.4907V24.732C14.4905 24.9727 14.4037 25.2055 14.2461 25.3878C14.0884 25.5703 13.8704 25.6902 13.6316 25.7261L13.5767 25.7337V26.7822L13.6323 26.7898C13.871 26.8258 14.0889 26.9458 14.2465 27.1283C14.4041 27.3106 14.491 27.5433 14.4913 27.784V28.0011H18.349L18.4111 27.5567C18.9801 23.6179 22.4393 20.6463 26.4561 20.6463H28.2074V9.47921L28.2081 9.47825Z" fill="var(--fill-0, white)"/>
<path id="Vector_8" d="M14.4912 27.7833C14.4908 27.5426 14.404 27.31 14.2464 27.1276C14.0888 26.9452 13.8708 26.8251 13.6321 26.7892L13.5766 26.7816L13.5769 25.7321L13.6318 25.7245C13.8706 25.6886 14.0885 25.5687 14.2462 25.3862C14.4038 25.2039 14.4906 24.9711 14.4908 24.7304V24.5153H12.5939C11.8409 22.6146 10.5961 20.9469 8.98641 19.6818C7.39895 18.4237 5.50932 17.601 3.50472 17.2952V10.7781H3.28698C3.04544 10.7774 2.81209 10.6907 2.62896 10.5337C2.44583 10.3767 2.32496 10.1596 2.28812 9.92169L2.28052 9.86635H1.22714L1.21921 9.92169C1.1825 10.1597 1.06166 10.3768 0.878506 10.5339C0.695349 10.691 0.46193 10.7775 0.220352 10.7781H0.000292313V20.6437H1.7535C5.77173 20.6437 9.23059 23.6153 9.79888 27.5554L9.86038 27.9994H14.4915L14.4912 27.7833Z" fill="var(--fill-0, #7F7F7F)"/>
<path id="Vector_9" d="M14.5047 8.5619C14.266 8.52594 14.0481 8.40591 13.8905 8.22361C13.7329 8.04132 13.646 7.80877 13.6456 7.56812V7.35133H12.5912C10.8598 2.94183 6.53926 -0.00278257 1.75347 -0.00278257H0.000260273V10.7759H0.22032C0.461898 10.7753 0.695317 10.6887 0.878474 10.5316C1.06163 10.3746 1.18246 10.1575 1.21918 9.91946L1.22711 9.86412H2.28049L2.28809 9.91946C2.32493 10.1574 2.4458 10.3745 2.62893 10.5315C2.81206 10.6885 3.0454 10.7752 3.28694 10.7759H3.50469V3.67049C4.19991 3.82258 4.87172 4.06629 5.50241 4.3952C6.25657 4.78784 6.94473 5.2953 7.54206 5.89929C8.13978 6.50135 8.63933 7.1929 9.02267 7.94892C9.41293 8.71627 9.67466 9.54219 9.79752 10.3938L9.81271 10.5015L9.85932 10.8365H13.6485V10.6204C13.6488 10.3797 13.7356 10.1469 13.8932 9.96455C14.0508 9.78211 14.2688 9.66208 14.5077 9.62627L14.5625 9.61868V8.56882L14.5047 8.5619Z" fill="var(--fill-0, #7F7F7F)"/>
</g>
</g>
<defs>
<clipPath id="clip0_0_108">
<rect width="112.832" height="28" fill="white"/>
</clipPath>
</defs>
</svg>
