<svg preserveAspectRatio="none" width="100%" height="100%" overflow="visible" style="display: block;" viewBox="0 0 112.231 40" fill="none" xmlns="http://www.w3.org/2000/svg">
<g id="wellpoint">
<path id="Fill-3" fill-rule="evenodd" clip-rule="evenodd" d="M47.2437 34.2958H50.4806V14.2957H47.2437V34.2958ZM40.4782 34.2958H43.7152V14.2957H40.4782V34.2958ZM25.6047 15.7636L20.2183 34.2958H16.079L12.7359 20.2451L9.39287 34.2958H5.38616L8.58307e-05 15.7636H3.66156L7.40273 30.1037L10.7991 15.7636H14.9648L18.3875 30.1037L22.1287 15.7636H25.6047ZM83.5925 34.2958H86.8632V20.2839H83.5925V34.2958ZM102.205 20.2831H104.457V16.6617H107.781V20.2831H111.239V23.4382H107.781V29.3676C107.781 30.6819 108.29 31.3245 109.255 31.3245C109.845 31.3245 110.435 31.0326 110.757 30.6235L112.231 33.2817C111.507 34.0412 110.301 34.6837 108.719 34.6837C106.119 34.6837 104.457 32.9018 104.457 29.4841V23.4382H102.205V20.2831ZM92.6075 34.2958H89.3369V20.2839H92.6075V21.6567C93.4118 20.5173 94.6448 19.8748 96.2265 19.8748C99.2021 19.8748 101.105 22.1531 101.105 25.8046V34.2958H97.835V26.3303C97.835 24.4314 96.8162 23.234 95.2349 23.234C93.5995 23.234 92.6075 24.4314 92.6075 26.3303V34.2958ZM78.5808 27.2646C78.5808 25.0155 77.1601 23.2336 75.2033 23.2336C73.2193 23.2336 71.7721 25.0155 71.7721 27.2642C71.7721 29.5133 73.2193 31.3245 75.2033 31.3245C77.1601 31.3245 78.5808 29.5137 78.5808 27.2646ZM68.5014 27.2934C68.5017 23.2044 71.4502 19.8744 75.1764 19.8744C78.9023 19.8744 81.8779 23.2044 81.8779 27.2939C81.8779 31.3537 78.9023 34.6837 75.1764 34.6837C71.4502 34.6837 68.5014 31.3537 68.5014 27.2934ZM56.9698 27.2934C56.9698 29.5425 58.4174 31.3244 60.3742 31.3244C62.3578 31.3244 63.7786 29.543 63.7786 27.2939C63.7789 25.0448 62.3578 23.2336 60.3742 23.2336C58.4174 23.2336 56.9698 25.0448 56.9698 27.2934ZM56.9698 20.2839V21.8024C57.9082 20.6046 59.2217 19.8744 60.8838 19.8744C64.2882 19.8744 67.0492 22.9121 67.0492 27.2646C67.0492 31.4998 64.4487 34.6837 60.8838 34.6837C59.1948 34.6837 57.8814 34.0119 56.9698 32.8726V39.9998H53.6996V20.2839L56.9698 20.2839ZM28.3953 25.9207H34.5875C34.2124 23.9346 33.0595 22.9121 31.5315 22.9121C29.8965 22.9121 28.7704 24.1392 28.3953 25.9207ZM24.9909 27.2934C24.9909 23.2044 27.7788 19.8744 31.4782 19.8744C35.1508 19.8744 37.9387 22.9706 37.9383 27.0016C37.9383 27.44 37.9115 27.9364 37.8578 28.1698H28.3417C28.6631 30.127 30.0306 31.529 32.0142 31.529C33.3009 31.529 34.3998 30.9157 35.1504 30.0686L36.8394 32.4931C35.8742 33.7197 34.0515 34.6837 31.8801 34.6837C27.8861 34.6837 24.9909 31.3537 24.9909 27.2934Z" fill="var(--fill-0, white)"/>
<path id="Fill-5" fill-rule="evenodd" clip-rule="evenodd" d="M82.9085 6.88508C83.4116 5.37246 84.1994 3.98092 85.2278 2.80188C86.2562 3.98092 87.0439 5.37246 87.547 6.88508C87.5581 6.91932 87.5697 6.95397 87.5808 6.98821C88.1237 6.64418 88.6919 6.34274 89.282 6.08765C89.2709 6.05466 89.2594 6.02126 89.2479 5.98828C88.5352 3.94417 87.3773 2.09629 85.8554 0.611228L85.2278 0L84.6005 0.611228C83.0775 2.09629 81.9192 3.94501 81.2069 5.98995C81.1954 6.02252 81.1843 6.05508 81.1732 6.08765C81.7632 6.34233 82.3319 6.64418 82.8748 6.98821C82.8859 6.95397 82.897 6.91932 82.9085 6.88508Z" fill="var(--fill-0, #7F7F7F)"/>
<path id="Fill-6" fill-rule="evenodd" clip-rule="evenodd" d="M95.1326 7.22287C95.1326 6.5177 95.0705 5.82798 94.9517 5.16039C94.6264 5.13325 94.2973 5.11948 93.9655 5.11948C90.5822 5.11948 87.5077 6.56029 85.2302 8.90917C85.2302 8.90917 85.2302 8.90917 85.2302 8.90954C85.6869 9.3809 86.1122 9.88859 86.5007 10.4288C86.5011 10.4285 86.5011 10.4285 86.5011 10.4285C88.2832 8.58352 90.6411 7.39279 93.2516 7.20491C93.2516 10.6769 91.394 13.685 88.7027 15.1008C88.7024 15.1008 88.7024 15.1008 88.7018 15.1008C88.8796 15.7675 89.0129 16.4547 89.0972 17.1587C92.6445 15.517 95.1324 11.6868 95.1324 7.22287" fill="var(--fill-0, #7F7F7F)"/>
<path id="Fill-7" fill-rule="evenodd" clip-rule="evenodd" d="M77.2008 7.20492C81.8455 7.53892 85.6913 11.0493 86.9155 15.7675C86.3695 15.8953 85.8032 15.9633 85.2219 15.9633C80.7922 15.9633 77.2008 12.0321 77.2008 7.20492ZM76.487 5.11948C76.1552 5.11948 75.8261 5.13326 75.5008 5.16039C75.382 5.82798 75.3199 6.5177 75.3199 7.22287C75.3199 13.1819 79.7531 18.0129 85.2219 18.0129C86.594 18.0129 87.901 17.7081 89.0888 17.1587C88.2749 10.3654 82.9433 5.11948 76.487 5.11948Z" fill="var(--fill-0, #7F7F7F)"/>
</g>
</svg>
