<svg preserveAspectRatio="none" width="100%" height="100%" overflow="visible" style="display: block;" viewBox="0 0 181.134 28.0001" fill="none" xmlns="http://www.w3.org/2000/svg">
<g id="chargeFuze">
<path id="Vector" d="M4.88225 21.774C4.21177 21.7778 3.54856 21.635 2.93903 21.3557C2.35194 21.0896 1.82472 20.7075 1.38905 20.2324C0.951016 19.7539 0.604975 19.1986 0.368281 18.5946C0.121235 17.9636 -0.00369459 17.2914 0.000135573 16.6137C-0.00307126 15.9398 0.118191 15.2711 0.357823 14.6412C0.586516 14.0441 0.92892 13.4972 1.36604 13.0306C1.80222 12.5703 2.32553 12.2013 2.90556 11.945C3.5228 11.673 4.19105 11.536 4.86552 11.5433C5.69988 11.528 6.5227 11.7399 7.24592 12.1562C7.92827 12.558 8.47245 13.1576 8.80635 13.8756L8.9465 14.1706L7.53039 14.6412L7.41744 14.432C7.17573 13.973 6.80775 13.5927 6.35693 13.336C5.89247 13.0676 5.36422 12.9296 4.82787 12.9364C4.37646 12.9339 3.92982 13.0288 3.51844 13.2146C3.11679 13.3992 2.75619 13.6624 2.45793 13.9886C2.14747 14.3334 1.90224 14.7317 1.73419 15.1641C1.55495 15.6313 1.46553 16.128 1.47063 16.6284C1.46602 17.6153 1.82406 18.5696 2.47675 19.31C2.7805 19.6415 3.14747 19.9089 3.55609 20.0965C3.96031 20.2922 4.40387 20.393 4.85297 20.3914C5.14865 20.391 5.44262 20.3466 5.72522 20.2596C6.01012 20.1762 6.284 20.0589 6.541 19.9103C6.77378 19.7782 6.98532 19.6118 7.16852 19.4166C7.32137 19.2635 7.43727 19.0775 7.50738 18.8728L7.58896 18.6155L9.03226 19.0339L8.92558 19.3267C8.78712 19.6914 8.58373 20.0281 8.32525 20.3203C8.05634 20.6283 7.74085 20.8922 7.39025 21.1026C7.02241 21.3238 6.62624 21.4941 6.2126 21.6088C5.77863 21.7236 5.33112 21.7792 4.88225 21.774Z" fill="var(--fill-0, white)"/>
<path id="Vector_2" d="M18.4295 21.5924V16.1037C18.4295 13.9701 17.7706 12.9347 16.4109 12.9347C16.0649 12.9351 15.7221 13.0011 15.4006 13.1292C15.0589 13.2655 14.7412 13.4555 14.4594 13.6919C14.161 13.9408 13.8997 14.231 13.6833 14.5537C13.4754 14.8604 13.3133 15.1958 13.2022 15.5494V21.584H11.738V7.94591H13.2022V13.2213L13.4783 12.9368C13.7365 12.6684 14.0258 12.4317 14.3401 12.2319C15.0331 11.7815 15.8418 11.5417 16.6682 11.5416C17.175 11.5284 17.6774 11.6382 18.1324 11.8616C18.5457 12.076 18.8982 12.3911 19.1574 12.7778C19.4374 13.2026 19.634 13.6768 19.7368 14.1751C19.8599 14.7582 19.9196 15.3529 19.9146 15.9489V21.5966L18.4295 21.5924Z" fill="var(--fill-0, white)"/>
<path id="Vector_3" d="M25.939 21.7755C25.0632 21.7817 24.2174 21.4567 23.5712 20.8656C23.2638 20.5833 23.0187 20.2399 22.8516 19.8574C22.6793 19.4616 22.5916 19.0341 22.5943 18.6023C22.59 18.163 22.7011 17.7302 22.9165 17.3473C23.137 16.9673 23.4366 16.6392 23.795 16.3851C24.1928 16.1086 24.635 15.9021 25.1023 15.7743C25.6407 15.6277 26.1969 15.5573 26.7548 15.5651C27.278 15.5659 27.8001 15.6121 28.3152 15.7032C28.6039 15.7555 28.88 15.8182 29.1415 15.8914L29.3506 15.9479V15.4334C29.3506 14.6197 29.1415 13.9963 28.6813 13.5299C28.2211 13.0634 27.6354 12.8375 26.851 12.8375C26.3949 12.8461 25.9441 12.9375 25.5207 13.1073C24.9951 13.3106 24.4958 13.576 24.0334 13.898L23.7741 14.0758L23.1465 12.9609L23.3557 12.8124C24.5898 11.9757 25.7863 11.5448 26.9117 11.5448C28.1061 11.5448 29.0641 11.9025 29.7606 12.6053C30.4572 13.3082 30.8065 14.2787 30.8065 15.5045V20.213H31.1872L31.1997 20.51V21.5559L30.9675 21.6019C30.8985 21.6144 30.8274 21.6249 30.7584 21.6333C30.6893 21.6416 30.6161 21.6333 30.5618 21.6333C30.4134 21.6376 30.2658 21.6093 30.1296 21.5504C29.9933 21.4915 29.8717 21.4034 29.7732 21.2923C29.6395 21.1415 29.544 20.9607 29.495 20.7652L29.4322 20.5226L29.2377 20.6794C28.9261 20.932 28.5829 21.1429 28.2169 21.307C27.4992 21.622 26.7229 21.7817 25.939 21.7755ZM26.851 16.7553C26.4477 16.7511 26.0456 16.7989 25.6545 16.8976C25.3372 16.9783 25.0344 17.1081 24.7572 17.2825C24.5344 17.4222 24.348 17.6129 24.2133 17.8389C24.0885 18.0533 24.0249 18.2978 24.0293 18.5459C24.0266 18.8077 24.0793 19.0672 24.184 19.3073C24.2787 19.5382 24.4213 19.7463 24.6024 19.918C24.7976 20.0989 25.0254 20.2409 25.2738 20.3364C25.5409 20.4385 25.8247 20.4896 26.1105 20.487C26.7248 20.4935 27.3333 20.368 27.8948 20.1189C28.3762 19.9155 28.7959 19.5895 29.1122 19.1734C29.2461 19.0204 29.3268 18.8281 29.3423 18.6254V17.1737L29.2335 17.136C28.9086 17.0282 28.5766 16.9429 28.2399 16.8808C27.7821 16.8001 27.318 16.7595 26.8531 16.7595L26.851 16.7553Z" fill="var(--fill-0, white)"/>
<path id="Vector_4" d="M34.3051 21.5911V11.7097H35.74V13.2514L36.0182 12.9501C36.1829 12.7725 36.362 12.6088 36.5537 12.4607C37.0856 12.0319 37.7297 11.7654 38.4091 11.693C38.5367 11.6805 38.6559 11.6742 38.7584 11.6742H39.2793V13.084H38.999C38.268 13.0902 37.5583 13.3306 36.9742 13.7701C36.4027 14.206 35.9851 14.8127 35.7819 15.5021V21.5911H34.3051Z" fill="var(--fill-0, white)"/>
<path id="Vector_5" d="M45.3358 25.5874C44.8265 25.593 44.3183 25.5397 43.8214 25.4284C43.3979 25.3331 42.9901 25.1782 42.6102 24.9683C42.2615 24.772 41.9436 24.5253 41.6669 24.2361C41.3955 23.9511 41.1576 23.636 40.9578 23.297L40.8197 23.0627L41.9053 22.3264L42.0622 22.592C42.3738 23.1502 42.8542 23.5954 43.4344 23.8638C44.0299 24.1408 44.679 24.2836 45.3358 24.2822C45.761 24.2845 46.1842 24.2224 46.5908 24.0981C46.9588 23.9875 47.3023 23.8079 47.6032 23.5689C47.8884 23.3346 48.1183 23.0404 48.2768 22.7071C48.4486 22.3247 48.533 21.9088 48.5236 21.4897V20.3183L48.2558 20.5631C48.0044 20.7903 47.7295 20.9901 47.4359 21.1592C46.8291 21.5142 46.144 21.7137 45.4415 21.74C44.739 21.7663 44.0409 21.6185 43.4093 21.3098C42.8499 21.0297 42.3521 20.6407 41.9451 20.1656C41.5323 19.6867 41.206 19.1396 40.9808 18.5487C40.7488 17.9482 40.6304 17.3099 40.6315 16.6662C40.6301 16.0105 40.7419 15.3594 40.962 14.7418C41.1709 14.1426 41.4878 13.5868 41.897 13.1018C42.3028 12.6271 42.8009 12.2399 43.3612 11.9639C43.948 11.6812 44.5924 11.538 45.2437 11.5456C46.0579 11.5294 46.8564 11.7702 47.5258 12.2338C47.8111 12.435 48.0797 12.6589 48.3291 12.9031L48.601 13.1709V11.7108H50.0004V21.4918C50.0132 22.112 49.8807 22.7267 49.6134 23.2865C49.3645 23.7881 49.0072 24.2282 48.5675 24.575C48.1247 24.9225 47.62 25.1829 47.0803 25.3427C46.5137 25.5084 45.9261 25.5909 45.3358 25.5874ZM45.3902 12.924C44.9149 12.9161 44.4453 13.0276 44.0243 13.2483C43.6277 13.4621 43.2783 13.7538 42.9972 14.1059C42.7108 14.4671 42.4912 14.8765 42.3488 15.3149C42.1997 15.7557 42.1227 16.2176 42.1208 16.6829C42.1185 17.1675 42.2087 17.6481 42.3864 18.099C42.5584 18.5345 42.8063 18.9361 43.1185 19.285C43.4251 19.6238 43.7955 19.8988 44.2083 20.0945C44.6221 20.2906 45.0745 20.3914 45.5324 20.3894C45.8911 20.386 46.2459 20.3151 46.5783 20.1803C46.9182 20.0454 47.2372 19.863 47.5258 19.6385C47.793 19.4312 48.0248 19.1818 48.2119 18.9001C48.3668 18.6783 48.4743 18.4269 48.5278 18.1617V15.1978C48.4059 14.8711 48.2337 14.5655 48.0174 14.292C47.8026 14.0163 47.549 13.7732 47.2644 13.5704C46.9832 13.3705 46.6755 13.2107 46.3503 13.0956C46.0425 12.9836 45.7177 12.9256 45.3902 12.924Z" fill="var(--fill-0, white)"/>
<path id="Vector_6" d="M57.7934 21.7729C57.1229 21.7767 56.4597 21.6339 55.8502 21.3546C55.2631 21.0884 54.7358 20.7064 54.3002 20.2313C53.4009 19.2419 52.9079 17.9496 52.9196 16.6126C52.9131 15.2903 53.4062 14.0142 54.3002 13.0399C54.7328 12.5757 55.2542 12.203 55.8334 11.9438C56.4412 11.6762 57.098 11.5381 57.762 11.5381C58.4261 11.5381 59.0828 11.6762 59.6906 11.9438C60.2708 12.2082 60.7938 12.5833 61.2301 13.0483C61.6626 13.5192 62.0031 14.0669 62.2341 14.6631C62.4745 15.2819 62.5965 15.9404 62.5939 16.6042V16.8364C62.6003 16.9369 62.5846 17.0376 62.5479 17.1313L62.4705 17.2966H54.4424L54.4801 17.4869C54.5371 17.7954 54.6327 18.0955 54.7645 18.3801C54.952 18.7907 55.2081 19.1663 55.5218 19.4908C55.8218 19.7967 56.1766 20.0436 56.5676 20.2187C56.9626 20.3941 57.3905 20.4833 57.8227 20.4802C58.1157 20.4801 58.4072 20.4386 58.6886 20.3568C58.9695 20.2771 59.2394 20.1625 59.4919 20.0159C59.7323 19.8781 59.9514 19.7062 60.1424 19.5055C60.3236 19.315 60.472 19.0959 60.5817 18.857L60.6842 18.6332L62.0166 18.9993L61.9141 19.2984C61.7685 19.6707 61.5558 20.0132 61.2866 20.3087C61.0063 20.6128 60.6837 20.8749 60.3286 21.0868C59.9569 21.3077 59.5573 21.478 59.1405 21.593C58.7018 21.7145 58.2485 21.775 57.7934 21.7729ZM57.7578 12.8537C57.3266 12.8521 56.8996 12.9382 56.5028 13.1068C56.1125 13.275 55.7576 13.5156 55.4569 13.8159C55.1483 14.1309 54.902 14.5014 54.7311 14.9078C54.6097 15.1984 54.5206 15.5014 54.4654 15.8115L54.432 16.0018H61.1255L61.0921 15.8115C61.0361 15.4992 60.942 15.195 60.8118 14.9057C60.6299 14.5015 60.3769 14.1331 60.065 13.818C59.7651 13.5162 59.4101 13.2748 59.0191 13.1068C58.6204 12.9372 58.1911 12.8511 57.7578 12.8537Z" fill="var(--fill-0, white)"/>
<path id="Vector_7" d="M69.2136 22.2024H72.2445V13.9421H80.7558V11.0765H72.2445V5.97681H82.2681V3.06093H69.2136V22.2024Z" fill="var(--fill-0, white)"/>
<path id="Vector_8" d="M101.386 12.6807C101.387 13.5498 101.3 14.4168 101.125 15.2681C100.978 16.0289 100.695 16.7568 100.288 17.4164C99.9153 18.0145 99.3953 18.5071 98.778 18.8471C98.1504 19.209 97.3137 19.391 96.3055 19.391C95.2973 19.391 94.4899 19.2111 93.8666 18.8597C93.2481 18.5163 92.722 18.0283 92.3333 17.4373C91.9192 16.7882 91.6324 16.0663 91.4883 15.31C91.3131 14.4445 91.2255 13.5637 91.2268 12.6807V3.05868H88.1938V12.6807C88.192 13.8325 88.3183 14.9809 88.5703 16.1048C88.8137 17.2146 89.2644 18.2684 89.8985 19.2111C90.5527 20.1611 91.4286 20.9372 92.4505 21.4722C93.4963 22.037 94.8099 22.3236 96.3348 22.3236C97.799 22.3236 99.0792 22.0517 100.112 21.5162C101.124 20.9992 101.994 20.2449 102.65 19.3177C103.301 18.3795 103.766 17.325 104.02 16.2115C104.292 15.0544 104.427 13.8693 104.424 12.6807V3.05868H101.391L101.386 12.6807Z" fill="var(--fill-0, white)"/>
<path id="Vector_9" d="M110.523 5.97681H121.684L110.351 19.9622V22.2024H125.87V19.2865H114.673L125.918 5.29909V3.06093H110.523V5.97681Z" fill="var(--fill-0, white)"/>
<path id="Vector_10" d="M134.886 19.2865V13.8689H143.69V11.0033H134.886V5.97681H144.958V3.06093H131.853V22.2024H145.177V19.2865H134.886Z" fill="var(--fill-0, white)"/>
<g id="Company icon">
<path id="Vector_11" d="M165.118 7.21374e-05L154.651 13.9582H162.389L154.542 28.0001L172.105 10.5111H165.056L172.793 7.21374e-05H165.118Z" fill="var(--fill-0, #7F7F7F)"/>
<path id="Vector_12" d="M173.775 5.60599L177.751 0.000135422H173.691L169.562 5.59553L173.775 5.60599Z" fill="var(--fill-0, #7F7F7F)"/>
<path id="Vector_13" d="M177.302 5.60599L181.134 0.000135422H178.624L174.641 5.59553L177.302 5.60599Z" fill="var(--fill-0, #7F7F7F)"/>
</g>
</g>
</svg>
