<svg preserveAspectRatio="none" width="100%" height="100%" overflow="visible" style="display: block;" viewBox="0 0 145.835 24.0001" fill="none" xmlns="http://www.w3.org/2000/svg">
<g id="mobolize">
<path id="Vector" d="M0 23.6441C0.58714 22.5833 0.976923 21.4287 1.44565 20.3136C2.85676 16.9635 4.29254 13.6281 5.62964 10.2533C6.05396 9.17771 6.91247 8.86687 7.81538 8.75832C9.70015 8.53136 9.92218 8.74352 10.5143 10.5148C11.3728 13.0854 12.2362 15.6609 13.0947 18.2315C13.149 18.3943 13.2131 18.5572 13.2921 18.7693C14.8611 17.2694 16.4005 15.804 17.9349 14.3386C19.5878 12.7598 21.2308 11.176 22.8886 9.60203C23.8211 8.71885 24.9017 8.54616 26.1154 8.90634C26.4953 9.01982 26.3621 9.20238 26.293 9.42934C25.1977 12.9966 24.1122 16.5638 23.0218 20.136C22.6814 21.2462 22.336 22.3514 22.0104 23.4615C21.9216 23.7674 21.8031 23.9006 21.4528 23.8908C20.2292 23.8611 19.0105 23.8611 17.7869 23.8908C17.3576 23.9006 17.3576 23.7575 17.4662 23.4171C18.1421 21.3448 18.8033 19.2676 19.4644 17.1904C19.4891 17.1214 19.499 17.0474 19.5187 16.9684C19.2918 16.8944 19.2276 17.077 19.1289 17.1707C17.106 19.0999 15.0831 21.0291 13.0602 22.9632C12.5668 23.4319 11.9303 23.6589 11.3629 23.9944H9.46826C8.87618 23.945 8.62455 23.5898 8.4716 23.0322C7.993 21.2906 7.50454 19.5489 7.00621 17.8121C6.9322 17.5506 6.88286 17.2793 6.71018 16.9684C6.48321 17.2842 6.3796 17.6148 6.25132 17.9256C5.49642 19.7413 4.72673 21.5471 3.9817 23.3628C3.80901 23.7871 3.58698 23.9746 3.10839 23.945C2.07226 23.8809 1.0312 24.0042 0 23.876V23.6391V23.6441Z" fill="var(--fill-0, white)"/>
<path id="Vector_2" d="M101.387 0C101.881 0.537801 101.94 0.962121 101.565 1.3075C101.22 1.62327 100.854 1.60847 100.514 1.31243C100.139 0.986791 100.208 0.532867 100.677 0H101.387Z" fill="var(--fill-0, #7F7F7F)"/>
<path id="Vector_3" d="M69.8057 24C70.0423 23.8077 70.2789 23.8275 70.5155 24H69.8057Z" fill="var(--fill-0, #7F7F7F)"/>
<path id="Vector_4" d="M34.5536 23.9996C34.7508 23.832 34.948 23.8172 35.1452 23.9996H34.5536Z" fill="var(--fill-0, white)"/>
<path id="Vector_5" d="M73.9418 23.9996C74.139 23.832 74.3361 23.8172 74.5333 23.9996H73.9418Z" fill="var(--fill-0, #7F7F7F)"/>
<path id="Vector_6" d="M125.774 23.8835C126.307 22.4083 126.82 20.9873 127.338 19.5663C128.577 16.1717 129.825 12.7772 131.044 9.37769C131.182 8.99284 131.34 8.83495 131.774 8.83989C136.19 8.85962 140.601 8.84975 145.016 8.84975C145.618 8.84975 145.905 9.18526 145.821 9.7724C145.697 10.6112 144.627 11.7213 143.793 11.8891C143.674 11.9137 143.576 11.9335 143.462 11.8595C142.855 11.4598 142.17 11.4401 141.474 11.445C139.994 11.4598 138.518 11.445 137.038 11.4499C135.494 11.4598 135.494 11.4697 134.961 12.9301C134.729 13.5715 134.492 14.208 134.236 14.9136C136.984 14.8297 139.663 15.0172 142.337 14.805C142.643 14.7804 142.698 14.8544 142.702 15.1356C142.717 16.0089 142.337 16.6849 141.726 17.2621C141.592 17.3855 141.449 17.4299 141.247 17.4299C138.726 17.4052 136.204 17.4003 133.683 17.3806C133.427 17.3806 133.298 17.4546 133.214 17.7013C132.859 18.7177 132.499 19.7341 132.109 20.7406C131.981 21.0761 132.085 21.1501 132.39 21.1748C133.767 21.2833 135.149 21.2044 136.525 21.2241C138 21.2438 139.481 21.2784 140.921 20.8491C141.148 20.7801 141.242 20.8738 141.341 21.0465C141.701 21.6978 141.726 22.3639 141.375 23.0201C141.05 23.6171 140.561 23.9032 139.841 23.8983C135.366 23.8786 130.895 23.8884 126.42 23.8884H125.779L125.774 23.8835Z" fill="var(--fill-0, white)"/>
<path id="Vector_7" d="M114.824 21.2729C117.478 21.2631 120.019 21.4703 122.466 20.5772C122.831 20.444 123.226 20.3108 123.527 20.074C123.941 19.7434 124.193 19.921 124.469 20.2121C125.012 20.7894 125.022 21.7565 124.484 22.5656C123.858 23.508 122.92 23.8633 121.845 23.8682C119.422 23.8879 116.994 23.8781 114.572 23.8781C113.131 23.8781 111.695 23.8781 110.255 23.8583C109.307 23.8484 108.612 23.3896 108.138 22.5903C107.916 22.2202 107.916 21.9291 108.34 21.6134C112.741 18.3224 117.118 15.0068 121.504 11.7011C121.563 11.6566 121.623 11.6024 121.79 11.4692C120.577 11.4692 119.471 11.4692 118.366 11.4692C117.335 11.4692 116.323 11.5925 115.351 11.9527C115.06 12.0612 114.73 12.1747 114.523 12.3869C114.019 12.9049 113.556 12.7619 113.067 12.4115C112.534 12.0316 112.297 11.4149 112.445 10.808C112.608 10.1419 113.067 9.7324 113.664 9.45117C114.577 9.02685 115.559 8.8887 116.541 8.87883C120.206 8.84923 123.872 8.85909 127.538 8.86403C128.032 8.86403 128.456 9.07619 128.787 9.43637C129.181 9.86562 129.167 10.3146 128.752 10.7291C127.558 11.9181 126.142 12.8211 124.805 13.8227C121.593 16.2304 118.361 18.6185 115.139 21.0164C115.065 21.0706 114.996 21.1298 114.819 21.268L114.824 21.2729Z" fill="var(--fill-0, white)"/>
<path id="Vector_8" d="M84.1018 23.882C85.2415 20.7391 86.3566 17.68 87.4667 14.616C88.118 12.8299 88.7792 11.0438 89.4255 9.25281C89.5094 9.01598 89.5686 8.83836 89.8893 8.84329C91.483 8.85809 93.0766 8.85316 94.6999 8.85316C94.7394 9.07519 94.6308 9.23801 94.5667 9.41069C93.2 13.1753 91.8431 16.9399 90.4567 20.6946C90.284 21.1584 90.4172 21.2423 90.8267 21.2275C93.496 21.1239 96.185 21.5137 98.8296 20.8525C99.0467 20.7983 99.1405 20.8723 99.2441 21.0499C99.999 22.3722 99.1553 23.8869 97.6553 23.8869C93.3825 23.8869 89.1048 23.8869 84.832 23.8869H84.1067L84.1018 23.882Z" fill="var(--fill-0, white)"/>
<path id="Vector_9" d="M109.583 12.5674C108.482 15.5919 107.402 18.5721 106.316 21.5571C106.094 22.164 105.848 22.7659 105.655 23.3827C105.542 23.7527 105.384 23.9057 104.964 23.8958C103.43 23.8662 101.895 23.881 100.351 23.881C100.302 23.5652 100.474 23.3333 100.563 23.0866C101.792 19.6921 103.03 16.3024 104.254 12.9079C104.392 12.528 104.466 12.3799 104.915 12.6365C106.252 13.4013 107.648 13.3865 109.04 12.7352C109.193 12.6661 109.311 12.5033 109.587 12.5724L109.583 12.5674Z" fill="var(--fill-0, white)"/>
<path id="Vector_10" d="M107.126 12.3146C105.765 12.3146 104.709 11.2735 104.724 9.94132C104.738 8.64863 105.809 7.58783 107.107 7.58289C108.439 7.58289 109.519 8.66343 109.5 9.9808C109.48 11.308 108.464 12.3096 107.126 12.3146Z" fill="var(--fill-0, #7F7F7F)"/>
<path id="Vector_11" d="M95.224 6.57672C96.0332 6.01918 96.0282 6.02905 96.7733 6.58659C98.8998 8.18026 101.337 9.01409 103.928 9.44335C104.362 9.51736 104.283 9.73938 104.298 10.0058C104.312 10.3167 104.125 10.3117 103.918 10.2821C100.972 9.86767 98.2041 9.01409 95.8457 7.11452C95.7371 7.03064 95.6385 6.93197 95.5349 6.84315C95.446 6.76421 95.3572 6.6902 95.229 6.58165L95.224 6.57672Z" fill="var(--fill-0, white)"/>
<path id="Vector_12" d="M109.958 9.63641C109.815 9.35517 109.855 9.15288 110.195 9.07394C110.269 9.0542 110.338 9.0098 110.407 8.97526C112.09 8.15129 112.445 6.76978 111.34 5.26492C110.378 3.95743 109.021 3.16306 107.585 2.49698C106.046 1.78155 104.427 1.30296 102.745 1.05626C102.646 1.04146 102.547 1.02666 102.454 1.00199C102.335 0.967451 102.158 1.01186 102.182 0.784894C102.212 0.518461 102.394 0.607272 102.537 0.627008C104.057 0.849036 105.542 1.21415 106.968 1.79635C108.305 2.33909 109.563 3.01998 110.629 4.00677C111.502 4.811 112.213 5.72872 112.203 6.98687C112.193 8.15622 111.266 9.21209 109.958 9.64134V9.63641Z" fill="var(--fill-0, white)"/>
<path id="Vector_13" d="M94.7885 4.00293C95.4003 4.0128 95.8197 4.44205 95.8147 5.04399C95.8049 5.6262 95.346 6.08506 94.7688 6.08999C94.1767 6.08999 93.6833 5.58179 93.7079 4.99465C93.7326 4.40751 94.1865 3.99306 94.7885 4.00293Z" fill="var(--fill-0, #7F7F7F)"/>
<path id="Vector_14" d="M94.0466 3.72139C94.0911 2.93689 94.4266 2.44843 94.8854 2.03398C95.9265 1.09653 97.2192 0.785688 98.5563 0.593263C98.8869 0.543924 99.2224 0.51432 99.5529 0.494584C99.701 0.484716 99.9032 0.440311 99.8983 0.687009C99.8934 0.894235 99.7059 0.839961 99.5825 0.844895C98.5563 0.909036 97.5448 1.03239 96.5926 1.4419C95.7735 1.79221 95.068 2.27574 94.846 3.21813C94.7423 3.66712 94.3229 3.42535 94.0466 3.71646V3.72139Z" fill="var(--fill-0, white)"/>
<path id="Exclude" d="M32.5176 9.1359C36.0304 8.51917 39.5631 8.48005 43.0908 9.1066C43.6533 9.20528 44.1919 9.39691 44.7051 9.65347C46.1357 10.3787 46.8459 11.5682 46.5205 13.132C45.9728 15.7815 45.025 18.3032 43.4609 20.5382C42.1238 22.4475 40.096 23.2223 37.8906 23.6466C37.1703 23.7847 36.43 23.7555 35.7295 23.9972H35.1377C34.9403 23.8986 34.7432 23.8986 34.5459 23.9972H29.6953C29.1822 23.7308 28.6002 23.8192 28.0674 23.6613C27.8059 23.5823 27.5291 23.5478 27.2627 23.4689C25.0772 22.8274 24.1994 21.4556 24.6533 19.2355C25.1072 17.0301 25.9018 14.9384 26.9922 12.9699C28.201 10.7891 30.1099 9.56025 32.5176 9.1359ZM39.4795 11.464C38.1968 11.1681 36.904 11.2073 35.6015 11.2912C33.5985 11.4195 32.3154 12.436 31.6592 14.3058C31.2891 15.3617 30.8896 16.4082 30.5195 17.464C30.2926 18.1152 30.0855 18.7665 30.0312 19.4621C29.9572 20.4339 30.2484 20.8781 31.1855 21.1545C32.123 21.4308 33.0906 21.4157 34.1465 21.465H34.1514C34.6101 21.4403 35.1625 21.4253 35.7099 21.3859C37.343 21.2675 38.5273 20.508 39.1885 18.9738C39.6868 17.8143 40.1064 16.6347 40.4863 15.4357C40.6885 14.7994 40.891 14.1632 40.9453 13.4923C41.044 12.2638 40.6686 11.7403 39.4795 11.464Z" fill="var(--fill-0, white)"/>
<path id="Exclude_2" d="M71.4512 9.25484C75.1121 8.48516 78.8027 8.48081 82.4883 9.10738C82.7991 9.16165 83.1005 9.25969 83.3965 9.35836C85.5132 10.0738 86.4112 11.5548 85.8438 13.706C85.2715 15.8718 84.4718 17.9683 83.3125 19.9072C81.9507 22.1817 79.7944 23.1836 77.2979 23.6523C76.617 23.7806 75.9062 23.7415 75.2451 23.998H74.5352C74.3379 23.8994 74.1406 23.8995 73.9434 23.998H70.5137C70.277 23.8994 70.0404 23.8994 69.8037 23.998H69.0977C68.5846 23.7316 67.9977 23.8249 67.4649 23.6572C67.1639 23.5634 66.8527 23.5146 66.5518 23.4209C64.4894 22.7646 63.6462 21.5013 64.0508 19.3896C64.5096 16.9819 65.3677 14.7024 66.6406 12.5957C67.7409 10.7751 69.4036 9.6841 71.4512 9.25484ZM78.8594 11.4707C77.5963 11.1746 76.3229 11.2189 75.04 11.2978C73.0223 11.4262 71.7147 12.4326 71.0635 14.3369C70.6342 15.5802 70.1655 16.8093 69.7412 18.0527C69.5785 18.5114 69.4652 18.995 69.4356 19.4882C69.3764 20.4748 69.6623 20.8848 70.6192 21.166C71.5368 21.4373 72.4844 21.4273 73.5303 21.4716L73.54 21.4765C73.9446 21.4617 74.4537 21.4367 74.9668 21.4121C76.7034 21.333 77.952 20.544 78.6328 18.916C79.2101 17.5345 79.7225 16.133 80.1123 14.6923C80.2209 14.2927 80.3151 13.888 80.3447 13.4785C80.4286 12.2303 80.078 11.7568 78.8594 11.4707Z" fill="var(--fill-0, white)"/>
<path id="Exclude_3" d="M50.7057 8.83635C53.6806 8.86595 56.6556 8.85075 59.6305 8.87541C60.637 8.88528 61.6343 8.99884 62.5915 9.33928C63.9876 9.84258 64.5307 10.8742 64.1754 12.3197C63.8153 13.7947 63.0795 14.7022 61.3727 15.7924C61.3727 15.8811 61.4267 15.9258 61.5006 15.9653C62.8476 16.7646 63.2372 17.8257 62.7389 19.3207C61.9297 21.753 60.134 23.0156 57.7116 23.5238C56.5126 23.7755 55.2985 23.8742 54.0749 23.8988V23.894C53.1622 23.894 52.2541 23.8988 51.3415 23.9037H44.7897C44.6814 23.6572 44.8291 23.4894 44.8932 23.3217C46.5806 18.6691 48.2831 14.0261 49.9606 9.36858C50.1037 8.97408 50.2766 8.83142 50.7057 8.83635ZM52.567 17.2485C52.2958 17.2436 52.2017 17.3564 52.1178 17.5932C51.7379 18.6885 51.3487 19.7793 50.9342 20.8598C50.8158 21.1755 50.8702 21.2885 51.2057 21.2885H53.5592V21.3334H54.7428C56.5783 21.3137 56.8842 21.0964 57.4713 19.3744C57.5453 19.1672 57.5948 18.9547 57.6491 18.7475C57.8907 17.7907 57.6934 17.5096 56.6969 17.3764C55.3253 17.1938 53.9436 17.2781 52.567 17.2485ZM56.3864 11.4164C55.8584 11.4164 55.3254 11.4263 54.7975 11.4164C54.5459 11.4115 54.4077 11.5205 54.3239 11.7572C54.0032 12.6601 53.6927 13.5684 53.3424 14.4613C53.1995 14.8262 53.3473 14.8511 53.6383 14.8412C54.5016 14.8067 55.3698 14.8263 56.2282 14.7572C57.9699 14.6142 58.6754 14.0167 59.0553 12.4477C59.223 11.7521 59.1047 11.5598 58.3844 11.4809C57.7184 11.4118 57.0524 11.3925 56.3864 11.3481V11.4164Z" fill="var(--fill-0, white)"/>
</g>
</svg>
