<svg preserveAspectRatio="none" width="100%" height="100%" overflow="visible" style="display: block;" viewBox="0 0 17.4362 17.9996" fill="none" xmlns="http://www.w3.org/2000/svg">
<path id="Subtract" d="M9.3999 5.79132C9.52169 5.59149 9.50705 5.33713 9.36312 5.15261L5.34396 0H13.0909C13.3493 0 13.5934 0.118364 13.7534 0.32121L17.1945 4.68399C17.4858 5.05322 17.5166 5.56464 17.2719 5.96619L13.7838 11.6889C13.6306 11.9401 13.3576 12.0935 13.0633 12.0935H10.9022L14.7429 5.79226C14.865 5.59197 14.85 5.33695 14.7052 5.15238L12.4288 2.24995H9.94463L11.854 4.68446C12.1436 5.0536 12.1736 5.56365 11.9295 5.96423L8.03714 12.3501C7.91573 12.5493 7.92986 12.8027 8.07266 12.9872L11.9532 17.9996H4.20809C3.94868 17.9996 3.70369 17.8803 3.54377 17.676L0.239213 13.4555C-0.0497911 13.0864 -0.0796079 12.5767 0.164381 12.1765L3.56826 6.59196C3.72142 6.34068 3.99444 6.18736 4.28871 6.18736H6.44983L2.69488 12.3478C2.57279 12.5481 2.58782 12.8032 2.73258 12.9877L4.89878 15.7496H7.38299L5.58377 13.4556C5.29425 13.0865 5.2642 12.5764 5.50837 12.1759L9.3999 5.79132Z" fill="var(--fill-0, white)"/>
</svg>
